<?xml version="1.0" encoding="utf-8"?>
<!-- Generator: Adobe Illustrator 15.1.0, SVG Export Plug-In . SVG Version: 6.00 Build 0)  -->
<!DOCTYPE svg PUBLIC "-//W3C//DTD SVG 1.1//EN" "http://www.w3.org/Graphics/SVG/1.1/DTD/svg11.dtd">
<svg version="1.1" id="Layer_1" xmlns="http://www.w3.org/2000/svg" xmlns:xlink="http://www.w3.org/1999/xlink" x="0px" y="0px"
	 width="717px" height="707px" viewBox="0 0 717 707" style="enable-background:new 0 0 717 707;" xml:space="preserve">
<style type="text/css">
<![CDATA[
	.st0{clip-path:url(#SVGID_4_);fill:#008F00;}
	.st1{clip-path:url(#SVGID_4_);fill:#0C62FF;}
	.st2{clip-path:url(#SVGID_4_);fill:none;stroke:#0C62FF;stroke-width:0.85;stroke-miterlimit:10;}
	.st3{clip-path:url(#SVGID_4_);fill:none;stroke:#FF0000;stroke-width:0.65;stroke-miterlimit:10;}
	.st4{clip-path:url(#SVGID_2_);}
	.st5{clip-path:url(#SVGID_4_);}
	.st6{fill:#FB9491;}
	.st7{clip-path:url(#SVGID_4_);fill:none;stroke:#000000;stroke-width:0.85;stroke-miterlimit:10;}
	.st8{fill:#008F00;}
	.st9{clip-path:url(#SVGID_4_);fill:none;stroke:#000000;stroke-width:0.65;stroke-miterlimit:10;}
]]>
</style>
<g>
	<defs>
		<rect id="SVGID_1_" width="717" height="707"/>
	</defs>
	<clipPath id="SVGID_2_">
		<use xlink:href="#SVGID_1_"  style="overflow:visible;"/>
	</clipPath>
	<g class="st4">
		<defs>
			<rect id="SVGID_3_" width="717" height="707"/>
		</defs>
		<clipPath id="SVGID_4_">
			<use xlink:href="#SVGID_3_"  style="overflow:visible;"/>
		</clipPath>
		<g class="st5">
			<path d="M3.5,88.7H8c0.7,0,1.4,0.1,1.8,0.3c0.9,0.4,1.4,1.2,1.4,2.4c0,0.6-0.1,1.1-0.4,1.5c-0.2,0.4-0.6,0.7-1,0.9
				c0.4,0.2,0.7,0.4,0.9,0.6c0.2,0.3,0.3,0.7,0.3,1.3l0,1.3c0,0.4,0,0.7,0.1,0.8c0.1,0.3,0.2,0.5,0.4,0.6v0.2H10
				c0-0.1-0.1-0.2-0.1-0.3c0-0.1,0-0.4-0.1-0.8l-0.1-1.7c0-0.7-0.3-1.1-0.7-1.3c-0.3-0.1-0.6-0.2-1.2-0.2h-3v4.3H3.5V88.7z
				 M7.9,93.2c0.6,0,1.1-0.1,1.5-0.4c0.4-0.3,0.5-0.7,0.5-1.4c0-0.7-0.3-1.2-0.8-1.5c-0.3-0.1-0.6-0.2-1.1-0.2H4.8v3.4H7.9z"/>
		</g>
		<g class="st5">
			<path d="M13.3,89.5v-0.7c0.7-0.1,1.1-0.2,1.4-0.3c0.3-0.2,0.5-0.5,0.6-1.1H16v7.3h-1v-5.2H13.3z"/>
		</g>
		<polygon class="st5" points="30.7,82.2 30.6,83.2 19.2,88.6 18.9,87.9 		"/>
		<g class="st5">
			<path d="M45.1,87.7h4.5c0.7,0,1.4,0.1,1.8,0.3c0.9,0.4,1.4,1.2,1.4,2.4c0,0.6-0.1,1.1-0.4,1.5c-0.2,0.4-0.6,0.7-1,0.9
				c0.4,0.2,0.7,0.4,0.9,0.6c0.2,0.3,0.3,0.7,0.3,1.3l0,1.3c0,0.4,0,0.7,0.1,0.8c0.1,0.3,0.2,0.5,0.4,0.6v0.2h-1.7
				c0-0.1-0.1-0.2-0.1-0.3s0-0.4-0.1-0.8l-0.1-1.7c0-0.7-0.3-1.1-0.7-1.3c-0.2-0.1-0.6-0.2-1.2-0.2h-3v4.3h-1.4V87.7z M49.5,92.3
				c0.6,0,1.1-0.1,1.5-0.4s0.5-0.7,0.5-1.4c0-0.7-0.3-1.2-0.8-1.5c-0.3-0.1-0.6-0.2-1.1-0.2h-3.2v3.4H49.5z"/>
		</g>
		<g class="st5">
			<path d="M54.7,92c0.2-0.5,0.7-0.9,1.3-1.3l1-0.6c0.4-0.3,0.7-0.5,0.9-0.7c0.3-0.3,0.4-0.6,0.4-1c0-0.4-0.1-0.8-0.4-1
				c-0.3-0.2-0.6-0.4-1-0.4c-0.6,0-1.1,0.2-1.3,0.7c-0.1,0.3-0.2,0.6-0.2,1.1h-0.9c0-0.6,0.1-1.2,0.4-1.6c0.4-0.7,1.1-1.1,2.1-1.1
				c0.8,0,1.4,0.2,1.8,0.7c0.4,0.5,0.6,1,0.6,1.5c0,0.6-0.2,1.1-0.6,1.5c-0.2,0.2-0.7,0.5-1.3,0.9l-0.7,0.4
				c-0.3,0.2-0.6,0.4-0.8,0.5c-0.3,0.3-0.6,0.6-0.6,1h4v0.9h-5C54.3,93.1,54.5,92.5,54.7,92z"/>
		</g>
		<polygon class="st5" points="42,88.8 41.6,89.5 30.6,83.2 30.7,82.2 		"/>
		<g class="st5">
			<path d="M35.1,59.4c0.7,0.9,1,2,1,3.4c0,1.5-0.4,2.7-1.1,3.7c-0.9,1.2-2.2,1.7-3.8,1.7c-1.5,0-2.7-0.5-3.6-1.5
				c-0.8-1-1.2-2.2-1.2-3.7c0-1.3,0.3-2.5,1-3.5c0.9-1.2,2.1-1.8,3.8-1.8C32.9,57.7,34.2,58.2,35.1,59.4z M33.9,65.7
				c0.5-0.9,0.8-1.8,0.8-2.9c0-1.2-0.3-2.1-0.9-2.8c-0.6-0.7-1.5-1.1-2.5-1.1c-1,0-1.9,0.4-2.5,1.1c-0.7,0.7-1,1.8-1,3.1
				c0,1.1,0.3,2,0.8,2.8c0.6,0.8,1.5,1.1,2.7,1.1C32.5,67,33.3,66.6,33.9,65.7z"/>
		</g>
		<rect x="28.5" y="70.1" class="st5" width="0.8" height="13.5"/>
		<rect x="32" y="70.1" class="st5" width="0.9" height="13.6"/>
		<g class="st5">
			<path d="M105,158.5h1.6l5,8.1v-8.1h1.3v10h-1.5l-5-8v8H105V158.5z"/>
			<path d="M115.1,158.5h1.4v4.1h5.1v-4.1h1.4v10h-1.4v-4.7h-5.1v4.7h-1.4V158.5z"/>
		</g>
		<g class="st5">
			<path d="M124.8,170c0.2-0.5,0.7-0.9,1.3-1.3l1-0.6c0.4-0.3,0.7-0.5,0.9-0.7c0.3-0.3,0.4-0.6,0.4-1c0-0.4-0.1-0.8-0.4-1
				c-0.3-0.2-0.6-0.4-1-0.4c-0.6,0-1.1,0.2-1.3,0.7c-0.1,0.3-0.2,0.6-0.2,1.1h-0.9c0-0.6,0.1-1.2,0.4-1.6c0.4-0.7,1.1-1.1,2.1-1.1
				c0.8,0,1.4,0.2,1.8,0.7c0.4,0.5,0.6,1,0.6,1.5c0,0.6-0.2,1.1-0.6,1.5c-0.2,0.2-0.7,0.5-1.3,0.9l-0.7,0.4
				c-0.3,0.2-0.6,0.4-0.8,0.5c-0.3,0.3-0.6,0.6-0.6,1h4v0.9h-5C124.4,171,124.6,170.5,124.8,170z"/>
		</g>
		<g class="st5">
			<path d="M84.1,148.5h1.6l5,8.1v-8.1h1.3v10h-1.5l-5-8v8h-1.3V148.5z"/>
		</g>
		<polygon class="st5" points="94.7,157.6 95,156.9 102.1,160.2 101.8,161 		"/>
		<g class="st5">
			<path d="M62.2,160.3h1.4v4.1h5.1v-4.1H70v10h-1.4v-4.7h-5.1v4.7h-1.4V160.3z"/>
		</g>
		<polygon class="st5" points="73.1,161.4 72.7,160.6 80.7,156.4 81,157.1 		"/>
		<g class="st5">
			<path d="M84.1,126.7h1.4v4.1h5.1v-4.1h1.4v10h-1.4V132h-5.1v4.7h-1.4V126.7z"/>
		</g>
		<rect x="86.5" y="138.9" class="st5" width="0.8" height="7.4"/>
		<circle class="st5" cx="81.2" cy="145.6" r="1.5"/>
		<circle class="st5" cx="77.7" cy="151.6" r="1.5"/>
		<path class="st2" d="M30.1,92.4c2.6,25.6,22,48.5,46.9,55.2"/>
		<path class="st1" d="M29.8,86.6l2.1,6.5c0,0-1-0.8-1.8-0.7s-1.7,1-1.7,1L29.8,86.6"/>
		<path class="st2" d="M29.8,86.6l2.1,6.5c0,0-1-0.8-1.8-0.7s-1.7,1-1.7,1L29.8,86.6"/>
		<circle class="st5" cx="24.8" cy="54.8" r="1.5"/>
		<circle class="st5" cx="21.3" cy="60.8" r="1.5"/>
		<circle class="st5" cx="41.5" cy="60.8" r="1.5"/>
		<circle class="st5" cx="37.9" cy="54.8" r="1.5"/>
		<path class="st2" d="M34.1,77.3c4.2-0.3,7.4-4,7-8.3c-0.1-1.3-0.5-2.5-1.2-3.5"/>
		<path class="st1" d="M37.9,63.4l3.6,1.2c0,0-1,0.4-1.5,0.9c-0.5,0.5-1,1.5-1,1.5L37.9,63.4"/>
		<path class="st2" d="M37.9,63.4l3.6,1.2c0,0-1,0.4-1.5,0.9c-0.5,0.5-1,1.5-1,1.5L37.9,63.4"/>
		<line class="st9" x1="161.1" y1="78.9" x2="79.4" y2="78.9"/>
		<path class="st5" d="M168.3,78.9l-8.4,2.1c0,0,1-1.2,1-2.1c0-1-1-2.2-1-2.2L168.3,78.9"/>
		<path class="st7" d="M168.3,78.9l-8.4,2.1c0,0,1-1.2,1-2.1c0-1-1-2.2-1-2.2L168.3,78.9"/>
		<g class="st5">
			<path d="M194.4,70.1h4.5c0.7,0,1.4,0.1,1.8,0.3c0.9,0.4,1.4,1.2,1.4,2.4c0,0.6-0.1,1.1-0.4,1.5c-0.2,0.4-0.6,0.7-1,0.9
				c0.4,0.2,0.7,0.4,0.9,0.6c0.2,0.3,0.3,0.7,0.3,1.3l0,1.3c0,0.4,0,0.7,0.1,0.8c0.1,0.3,0.2,0.5,0.4,0.6v0.2h-1.7
				c0-0.1-0.1-0.2-0.1-0.3s0-0.4-0.1-0.8l-0.1-1.7c0-0.7-0.3-1.1-0.7-1.3c-0.3-0.1-0.6-0.2-1.2-0.2h-3v4.3h-1.4V70.1z M198.8,74.7
				c0.6,0,1.1-0.1,1.5-0.4s0.5-0.7,0.5-1.4c0-0.7-0.3-1.2-0.8-1.5c-0.3-0.1-0.6-0.2-1.1-0.2h-3.2v3.4H198.8z"/>
		</g>
		<g class="st5">
			<path d="M204.2,70.9v-0.7c0.7-0.1,1.1-0.2,1.4-0.3c0.3-0.2,0.5-0.5,0.6-1.1h0.7v7.3h-1v-5.2H204.2z"/>
		</g>
		<polygon class="st5" points="224,68.5 224.3,68.8 224,69.4 209.8,72.9 209.5,72 		"/>
		<g class="st5">
			<path d="M241.6,69.2h4.5c0.7,0,1.4,0.1,1.8,0.3c0.9,0.4,1.4,1.2,1.4,2.4c0,0.6-0.1,1.1-0.4,1.5c-0.2,0.4-0.6,0.7-1,0.9
				c0.4,0.2,0.7,0.4,0.9,0.6c0.2,0.3,0.3,0.7,0.3,1.3l0,1.3c0,0.4,0,0.7,0.1,0.8c0.1,0.3,0.2,0.5,0.4,0.6v0.2h-1.7
				c0-0.1-0.1-0.2-0.1-0.3s0-0.4-0.1-0.8l-0.1-1.7c0-0.7-0.3-1.1-0.7-1.3c-0.3-0.1-0.6-0.2-1.2-0.2h-3v4.3h-1.4V69.2z M246,73.7
				c0.6,0,1.1-0.1,1.5-0.4s0.5-0.7,0.5-1.4c0-0.7-0.3-1.2-0.8-1.5c-0.3-0.1-0.6-0.2-1.1-0.2h-3.2v3.4H246z"/>
		</g>
		<g class="st5">
			<path d="M251.2,73.5c0.2-0.5,0.7-0.9,1.3-1.3l1-0.6c0.4-0.3,0.7-0.5,0.9-0.7c0.3-0.3,0.4-0.6,0.4-1c0-0.4-0.1-0.8-0.4-1
				c-0.3-0.2-0.6-0.4-1-0.4c-0.6,0-1.1,0.2-1.3,0.7c-0.1,0.3-0.2,0.6-0.2,1.1h-0.9c0-0.6,0.1-1.2,0.4-1.6c0.4-0.7,1.1-1.1,2.1-1.1
				c0.8,0,1.4,0.2,1.8,0.7c0.4,0.5,0.6,1,0.6,1.5c0,0.6-0.2,1.1-0.6,1.5c-0.2,0.2-0.7,0.5-1.3,0.9l-0.7,0.4
				c-0.3,0.2-0.6,0.4-0.8,0.5c-0.3,0.3-0.6,0.6-0.6,1h4v0.9h-5C250.8,74.5,250.9,74,251.2,73.5z"/>
		</g>
		<polygon class="st5" points="238.8,72.2 238.6,73 224.8,69.4 224.3,68.8 224.8,68.5 		"/>
		<g class="st5">
			<path d="M228.8,45.5c0.7,0.9,1,2,1,3.4c0,1.5-0.4,2.7-1.1,3.7c-0.9,1.2-2.2,1.7-3.8,1.7c-1.5,0-2.7-0.5-3.6-1.5
				c-0.8-1-1.2-2.2-1.2-3.7c0-1.3,0.3-2.5,1-3.5c0.9-1.2,2.1-1.8,3.8-1.8C226.6,43.8,227.9,44.3,228.8,45.5z M227.6,51.8
				c0.5-0.9,0.8-1.8,0.8-2.9c0-1.2-0.3-2.1-0.9-2.8c-0.6-0.7-1.5-1.1-2.5-1.1c-1,0-1.9,0.4-2.5,1.1c-0.7,0.7-1,1.8-1,3.1
				c0,1.1,0.3,2,0.8,2.8c0.6,0.8,1.5,1.1,2.7,1.1C226.2,53.1,227,52.7,227.6,51.8z"/>
		</g>
		<polygon class="st5" points="224,56.2 224.8,56.2 224.8,68.5 224.3,68.8 224,68.5 		"/>
		<g class="st5">
			<path d="M221.5,86.6h1.6l5,8.1v-8.1h1.3v10h-1.5l-5-8v8h-1.3V86.6z"/>
		</g>
		<polygon class="st5" points="224.8,84.4 224,84.4 224,69.4 224.3,68.8 224.8,69.4 		"/>
		<g class="st5">
			<path d="M244.9,92.8h1.4v4.1h5.1v-4.1h1.4v10h-1.4v-4.7h-5.1v4.7h-1.4V92.8z"/>
		</g>
		<polygon class="st5" points="242.2,95.9 242,96.7 232,94 232.2,93.2 		"/>
		<g class="st5">
			<path d="M196.3,94.1h1.4v4.1h5.1v-4.1h1.4v10h-1.4v-4.7h-5.1v4.7h-1.4V94.1z"/>
		</g>
		<polygon class="st5" points="207.1,97.1 206.8,96.4 218.5,92.9 218.8,93.7 		"/>
		<g class="st5">
			<path d="M221.5,110.3h1.6l5,8.1v-8.1h1.3v10h-1.5l-5-8v8h-1.3V110.3z"/>
			<path d="M231.5,110.3h1.4v4.1h5.1v-4.1h1.4v10H238v-4.7h-5.1v4.7h-1.4V110.3z"/>
		</g>
		<g class="st5">
			<path d="M241.2,121.8c0.2-0.5,0.7-0.9,1.3-1.3l1-0.6c0.4-0.3,0.7-0.5,0.9-0.7c0.3-0.3,0.4-0.6,0.4-1c0-0.4-0.1-0.8-0.4-1
				c-0.3-0.2-0.6-0.4-1-0.4c-0.6,0-1.1,0.2-1.3,0.7c-0.1,0.3-0.2,0.6-0.2,1.1H241c0-0.6,0.1-1.2,0.4-1.6c0.4-0.7,1.1-1.1,2.1-1.1
				c0.8,0,1.4,0.2,1.8,0.7c0.4,0.5,0.6,1,0.6,1.5c0,0.6-0.2,1.1-0.6,1.5c-0.2,0.2-0.7,0.5-1.3,0.9l-0.7,0.4
				c-0.3,0.2-0.6,0.4-0.8,0.5c-0.3,0.3-0.6,0.6-0.6,1h4v0.9h-5C240.9,122.8,241,122.3,241.2,121.8z"/>
		</g>
		<rect x="224" y="98.8" class="st5" width="0.8" height="9.2"/>
		<circle class="st3" cx="215.1" cy="85.9" r="4.9"/>
		<line class="st3" x1="212.6" y1="85.9" x2="217.5" y2="85.9"/>
		<line class="st3" x1="215.1" y1="83.5" x2="215.1" y2="88.4"/>
		<circle class="st3" cx="237.1" cy="36" r="4.5"/>
		<line class="st3" x1="234.9" y1="36" x2="239.4" y2="36"/>
		<circle class="st5" cx="228.4" cy="38.1" r="1.5"/>
		<circle class="st5" cx="221.4" cy="38" r="1.5"/>
		<circle class="st5" cx="235.6" cy="52.5" r="1.5"/>
		<circle class="st5" cx="235.6" cy="45.6" r="1.5"/>
		<circle class="st5" cx="214.1" cy="45.3" r="1.5"/>
		<circle class="st5" cx="214.1" cy="52.3" r="1.5"/>
		<g class="st5">
			<path d="M323.3,125.4c0.7,0.9,1,2,1,3.4c0,1.5-0.4,2.7-1.1,3.7c-0.9,1.2-2.2,1.7-3.8,1.7c-1.5,0-2.7-0.5-3.6-1.5
				c-0.8-1-1.2-2.2-1.2-3.7c0-1.3,0.3-2.5,1-3.5c0.9-1.2,2.1-1.8,3.8-1.8C321.1,123.7,322.4,124.3,323.3,125.4z M322.1,131.8
				c0.5-0.9,0.8-1.8,0.8-2.9c0-1.2-0.3-2.1-0.9-2.8c-0.6-0.7-1.5-1.1-2.5-1.1c-1,0-1.9,0.4-2.5,1.1c-0.7,0.7-1,1.8-1,3.1
				c0,1.1,0.3,2,0.8,2.8c0.6,0.8,1.5,1.1,2.7,1.1C320.7,133,321.5,132.6,322.1,131.8z"/>
			<path d="M325.9,124h1.4v4.1h5.1V124h1.4v10h-1.4v-4.7h-5.1v4.7h-1.4V124z"/>
		</g>
		<circle class="st5" cx="309.7" cy="124.8" r="1.5"/>
		<circle class="st5" cx="309.5" cy="131.8" r="1.5"/>
		<circle class="st5" cx="315.8" cy="138.7" r="1.5"/>
		<circle class="st5" cx="322.7" cy="138.7" r="1.5"/>
		<circle class="st5" cx="322.9" cy="119" r="1.5"/>
		<circle class="st5" cx="316" cy="119" r="1.5"/>
		<circle class="st3" cx="308" cy="116.5" r="4.5"/>
		<line class="st3" x1="305.8" y1="116.5" x2="310.3" y2="116.5"/>
		<path class="st2" d="M258.1,109.8c12.3,13.5,31.1,20.6,49.2,18.7"/>
		<path class="st1" d="M254.4,105.3l5.6,4c0,0-1.3,0-1.9,0.5s-0.8,1.8-0.8,1.8L254.4,105.3"/>
		<path class="st2" d="M254.4,105.3l5.6,4c0,0-1.3,0-1.9,0.5s-0.8,1.8-0.8,1.8L254.4,105.3"/>
		<path class="st2" d="M237.9,92.8c2.2-2.4,2.1-6.2-0.3-8.4c-1.6-1.5-3.9-2-6-1.3"/>
		<path class="st1" d="M229.1,84.7l1.9-3.3c0,0,0.2,1,0.6,1.7c0.4,0.6,1.3,1.2,1.3,1.2L229.1,84.7"/>
		<path class="st2" d="M229.1,84.7l1.9-3.3c0,0,0.2,1,0.6,1.7c0.4,0.6,1.3,1.2,1.3,1.2L229.1,84.7"/>
		<line class="st9" x1="364.4" y1="78.9" x2="278.6" y2="78.9"/>
		<path class="st5" d="M371.6,78.9l-8.4,2.1c0,0,1-1.2,1-2.1c0-1-1-2.2-1-2.2L371.6,78.9"/>
		<path class="st7" d="M371.6,78.9l-8.4,2.1c0,0,1-1.2,1-2.1c0-1-1-2.2-1-2.2L371.6,78.9"/>
		<path class="st7" d="M312,78.9c12.4-6,21.5-18.2,23.9-31.8"/>
		<path class="st5" d="M336.4,41.3l1,6.9c0,0-0.9-1-1.6-1.1c-0.8-0.1-1.8,0.6-1.8,0.6L336.4,41.3"/>
		<path class="st7" d="M336.4,41.3l1,6.9c0,0-0.9-1-1.6-1.1c-0.8-0.1-1.8,0.6-1.8,0.6L336.4,41.3"/>
		<g class="st5">
			<path class="st6" d="M66.4,183.4h1.1l-0.7,3.3c0.3-0.3,0.6-0.6,0.9-0.7c0.4-0.2,0.9-0.3,1.4-0.3c0.9,0,1.5,0.3,1.7,1
				c0.1,0.4,0.1,0.9,0,1.5l-0.9,4.2h-1.1l0.9-4.1c0.1-0.5,0.1-0.8,0-1.1c-0.1-0.4-0.5-0.5-1-0.5c-0.5,0-0.9,0.2-1.3,0.5
				c-0.4,0.3-0.7,0.9-0.9,1.8l-0.7,3.5h-1.1L66.4,183.4z"/>
			<path class="st6" d="M76.9,185.9h1.2c-0.2,0.4-0.8,1.4-1.6,2.9c-0.6,1.1-1.2,2-1.6,2.7c-1,1.7-1.7,2.7-2,3.1s-0.8,0.5-1.5,0.5
				c-0.2,0-0.3,0-0.4,0c-0.1,0-0.2,0-0.3-0.1l0.2-1c0.2,0.1,0.3,0.1,0.4,0.1c0.1,0,0.2,0,0.2,0c0.2,0,0.4,0,0.5-0.1
				c0.1-0.1,0.2-0.1,0.3-0.2c0,0,0.1-0.2,0.3-0.5c0.2-0.3,0.3-0.5,0.4-0.7l-1-6.7h1.2l0.6,5.3L76.9,185.9z"/>
			<path class="st6" d="M82.7,186.1c0.2,0.1,0.3,0.3,0.5,0.6l0.7-3.3h1.1l-1.9,9h-1l0.2-0.9c-0.3,0.4-0.7,0.7-1.1,0.9
				c-0.4,0.2-0.8,0.3-1.3,0.3c-0.7,0-1.3-0.3-1.7-0.9c-0.4-0.6-0.5-1.4-0.3-2.4c0.2-1,0.6-1.8,1.3-2.5s1.4-1,2.3-1
				C82,185.7,82.4,185.9,82.7,186.1z M80.4,191.7c0.5,0,1-0.2,1.4-0.7c0.4-0.4,0.7-1.1,0.9-1.9c0.2-0.8,0.1-1.4-0.1-1.8
				c-0.3-0.4-0.6-0.6-1.1-0.6c-0.6,0-1,0.2-1.5,0.6c-0.4,0.4-0.7,1-0.9,1.9c-0.2,0.7-0.1,1.3,0.1,1.8
				C79.3,191.4,79.8,191.7,80.4,191.7z"/>
			<path class="st6" d="M86.1,185.9h1l-0.2,1.1c0.1-0.2,0.4-0.5,0.8-0.8c0.4-0.3,0.8-0.5,1.3-0.5c0,0,0.1,0,0.1,0s0.1,0,0.2,0
				l-0.2,1.2c-0.1,0-0.1,0-0.2,0s-0.1,0-0.2,0c-0.6,0-1,0.2-1.4,0.5c-0.4,0.4-0.6,0.8-0.7,1.2l-0.8,3.8h-1.1L86.1,185.9z"/>
			<path class="st6" d="M93.2,188.4c0.3,0,0.5-0.1,0.6-0.3c0.1-0.1,0.1-0.2,0.2-0.4c0.1-0.4,0-0.6-0.2-0.8c-0.2-0.2-0.6-0.3-1.1-0.3
				c-0.6,0-1,0.2-1.3,0.5c-0.2,0.2-0.3,0.4-0.4,0.8h-1c0.2-0.8,0.6-1.4,1.1-1.7c0.6-0.3,1.2-0.5,1.8-0.5c0.8,0,1.4,0.1,1.8,0.4
				s0.6,0.7,0.4,1.4l-0.8,3.8c0,0.1,0,0.2,0,0.3c0,0.1,0.1,0.1,0.3,0.1c0,0,0.1,0,0.2,0c0.1,0,0.1,0,0.2,0l-0.2,0.8
				c-0.2,0-0.3,0.1-0.4,0.1c-0.1,0-0.2,0-0.4,0c-0.4,0-0.6-0.1-0.7-0.4c-0.1-0.1-0.1-0.3-0.1-0.6c-0.3,0.3-0.7,0.5-1.1,0.8
				c-0.5,0.2-0.9,0.3-1.5,0.3c-0.6,0-1.1-0.2-1.4-0.6c-0.3-0.4-0.4-0.8-0.3-1.4c0.1-0.6,0.4-1.1,0.9-1.4c0.4-0.3,1-0.5,1.6-0.6
				L93.2,188.4z M91,191.7c0.4,0,0.8-0.1,1.2-0.3c0.7-0.3,1.1-0.8,1.2-1.5l0.2-0.9c-0.2,0.1-0.3,0.2-0.6,0.2s-0.4,0.1-0.6,0.1
				l-0.7,0.1c-0.4,0.1-0.7,0.1-1,0.2c-0.4,0.2-0.6,0.5-0.7,0.9c-0.1,0.3,0,0.6,0.2,0.8S90.7,191.7,91,191.7z"/>
			<path class="st6" d="M95.5,191.5l4.9-4.7h-3.6l0.2-1h5.1l-0.2,0.9l-4.8,4.7h4l-0.2,1h-5.5L95.5,191.5z"/>
			<path class="st6" d="M103.4,185.9h1.1l-1.4,6.5H102L103.4,185.9z M103.9,183.4h1.1l-0.3,1.2h-1.1L103.9,183.4z"/>
			<path class="st6" d="M106.2,185.9h1l-0.2,0.9c0.4-0.4,0.8-0.7,1.2-0.8c0.4-0.2,0.8-0.3,1.2-0.3c0.9,0,1.5,0.3,1.7,1
				c0.1,0.4,0.1,0.9,0,1.5l-0.9,4.2H109l0.9-4.1c0.1-0.4,0.1-0.7,0-1c-0.1-0.4-0.4-0.6-0.9-0.6c-0.3,0-0.5,0-0.7,0.1
				c-0.3,0.1-0.6,0.3-0.9,0.5c-0.2,0.2-0.4,0.4-0.5,0.7c-0.1,0.2-0.2,0.6-0.3,1l-0.7,3.4h-1.1L106.2,185.9z"/>
			<path class="st6" d="M118,186.9c0.2,0.3,0.2,0.7,0.2,1.2c0,0.3-0.1,0.8-0.2,1.4h-4.8c-0.1,0.7-0.1,1.2,0.1,1.6
				c0.2,0.4,0.6,0.6,1.2,0.6c0.6,0,1.1-0.2,1.5-0.6c0.2-0.2,0.4-0.5,0.6-0.8h1.1c-0.1,0.2-0.2,0.5-0.5,0.8s-0.5,0.5-0.7,0.7
				c-0.4,0.3-0.9,0.5-1.4,0.7c-0.3,0.1-0.6,0.1-0.9,0.1c-0.8,0-1.4-0.3-1.9-0.9c-0.4-0.6-0.5-1.4-0.3-2.5c0.2-1,0.7-1.9,1.4-2.6
				c0.7-0.7,1.5-1,2.4-1c0.5,0,0.9,0.1,1.3,0.3C117.6,186.3,117.8,186.5,118,186.9z M117,188.6c0.1-0.5,0-0.9-0.1-1.1
				c-0.2-0.5-0.6-0.8-1.3-0.8c-0.5,0-1,0.2-1.4,0.5s-0.7,0.8-0.8,1.4H117z"/>
		</g>
		<g class="st5">
			<path d="M398.2,71.1h4.5c0.7,0,1.4,0.1,1.8,0.3c0.9,0.4,1.4,1.2,1.4,2.4c0,0.6-0.1,1.1-0.4,1.5c-0.2,0.4-0.6,0.7-1,0.9
				c0.4,0.2,0.7,0.4,0.9,0.6s0.3,0.7,0.3,1.3l0,1.3c0,0.4,0,0.7,0.1,0.8c0.1,0.3,0.2,0.5,0.4,0.6v0.2h-1.7c0-0.1-0.1-0.2-0.1-0.3
				s0-0.4-0.1-0.8l-0.1-1.7c0-0.7-0.3-1.1-0.7-1.3c-0.3-0.1-0.6-0.2-1.2-0.2h-3v4.3h-1.4V71.1z M402.6,75.6c0.6,0,1.1-0.1,1.5-0.4
				c0.4-0.3,0.5-0.7,0.5-1.4c0-0.7-0.2-1.2-0.8-1.5c-0.3-0.1-0.6-0.2-1.1-0.2h-3.2v3.4H402.6z"/>
		</g>
		<g class="st5">
			<path d="M408.1,71.9v-0.7c0.7-0.1,1.1-0.2,1.4-0.3c0.3-0.2,0.5-0.5,0.6-1.1h0.7V77h-1v-5.2H408.1z"/>
		</g>
		<polygon class="st5" points="427.8,69.4 428.2,69.8 427.8,70.3 413.7,73.8 413.5,73 		"/>
		<g class="st5">
			<path d="M445.4,70.1h4.5c0.7,0,1.4,0.1,1.8,0.3c0.9,0.4,1.4,1.2,1.4,2.4c0,0.6-0.1,1.1-0.4,1.5c-0.2,0.4-0.6,0.7-1,0.9
				c0.4,0.2,0.7,0.4,0.9,0.6c0.2,0.3,0.3,0.7,0.3,1.3l0,1.3c0,0.4,0,0.7,0.1,0.8c0.1,0.3,0.2,0.5,0.4,0.6v0.2h-1.7
				c0-0.1-0.1-0.2-0.1-0.3s0-0.4-0.1-0.8l-0.1-1.7c0-0.7-0.3-1.1-0.7-1.3c-0.3-0.1-0.6-0.2-1.2-0.2h-3v4.3h-1.4V70.1z M449.8,74.7
				c0.6,0,1.1-0.1,1.5-0.4s0.5-0.7,0.5-1.4c0-0.7-0.3-1.2-0.8-1.5c-0.3-0.1-0.6-0.2-1.1-0.2h-3.2v3.4H449.8z"/>
		</g>
		<g class="st5">
			<path d="M455,74.4c0.2-0.5,0.7-0.9,1.3-1.3l1-0.6c0.4-0.3,0.7-0.5,0.9-0.7c0.3-0.3,0.4-0.6,0.4-1c0-0.4-0.1-0.8-0.4-1
				c-0.3-0.2-0.6-0.4-1-0.4c-0.6,0-1.1,0.2-1.3,0.7c-0.1,0.3-0.2,0.6-0.2,1.1h-0.9c0-0.6,0.1-1.2,0.4-1.6c0.4-0.7,1.1-1.1,2.1-1.1
				c0.8,0,1.4,0.2,1.8,0.7c0.4,0.5,0.6,1,0.6,1.5c0,0.6-0.2,1.1-0.6,1.5c-0.2,0.2-0.7,0.5-1.3,0.9l-0.7,0.4
				c-0.3,0.2-0.6,0.4-0.8,0.5c-0.3,0.3-0.6,0.6-0.6,1h4v0.9h-5C454.6,75.5,454.8,74.9,455,74.4z"/>
		</g>
		<polygon class="st5" points="442.7,73.1 442.5,74 428.7,70.3 428.2,69.8 428.7,69.5 		"/>
		<g class="st5">
			<path d="M432.6,46.4c0.7,0.9,1,2,1,3.4c0,1.5-0.4,2.7-1.1,3.7c-0.9,1.2-2.2,1.7-3.8,1.7c-1.5,0-2.7-0.5-3.6-1.5
				c-0.8-1-1.2-2.2-1.2-3.7c0-1.3,0.3-2.5,1-3.5c0.9-1.2,2.1-1.8,3.8-1.8C430.5,44.7,431.8,45.3,432.6,46.4z M431.4,52.8
				c0.5-0.9,0.8-1.8,0.8-2.9c0-1.2-0.3-2.1-0.9-2.8c-0.6-0.7-1.5-1.1-2.5-1.1c-1,0-1.9,0.4-2.5,1.1c-0.7,0.7-1,1.8-1,3.1
				c0,1.1,0.3,2,0.8,2.8c0.6,0.8,1.5,1.1,2.7,1.1C430,54,430.9,53.6,431.4,52.8z"/>
		</g>
		<polygon class="st5" points="427.8,57.1 428.7,57.1 428.7,69.5 428.2,69.8 427.8,69.4 		"/>
		<g class="st5">
			<path d="M425.4,87.6h1.6l5,8.1v-8.1h1.3v10h-1.5l-5-8v8h-1.3V87.6z"/>
		</g>
		<polygon class="st5" points="428.7,85.3 427.8,85.3 427.8,70.3 428.2,69.8 428.7,70.3 		"/>
		<g class="st5">
			<path d="M402.5,99.4h1.4v4.1h5.1v-4.1h1.4v10H409v-4.7h-5.1v4.7h-1.4V99.4z"/>
		</g>
		<polygon class="st5" points="413.5,100.6 413,100 422,95.3 422.3,96 		"/>
		<g class="st5">
			<path d="M444.5,101.6h1.6l5,8.1v-8.1h1.3v10h-1.5l-5-8v8h-1.3V101.6z"/>
			<path d="M454.6,101.6h1.4v4.1h5.1v-4.1h1.4v10h-1.4v-4.7h-5.1v4.7h-1.4V101.6z"/>
		</g>
		<g class="st5">
			<path d="M464.3,113.1c0.2-0.5,0.7-0.9,1.3-1.3l1-0.6c0.4-0.3,0.7-0.5,0.9-0.7c0.3-0.3,0.4-0.6,0.4-1c0-0.4-0.1-0.8-0.4-1
				c-0.3-0.2-0.6-0.4-1-0.4c-0.6,0-1.1,0.2-1.3,0.7c-0.1,0.3-0.2,0.6-0.2,1.1h-0.9c0-0.6,0.1-1.2,0.4-1.6c0.4-0.7,1.1-1.1,2.1-1.1
				c0.8,0,1.4,0.2,1.8,0.7c0.4,0.5,0.6,1,0.6,1.5c0,0.6-0.2,1.1-0.6,1.5c-0.2,0.2-0.7,0.5-1.3,0.9l-0.7,0.4
				c-0.3,0.2-0.6,0.4-0.8,0.5c-0.3,0.3-0.6,0.6-0.6,1h4v0.9h-5C463.9,114.1,464.1,113.6,464.3,113.1z"/>
		</g>
		<polygon class="st5" points="441.6,101.8 441.1,102.5 435.3,98.2 435.8,97.6 		"/>
		<circle class="st3" cx="441" cy="36.9" r="4.5"/>
		<line class="st3" x1="438.7" y1="36.9" x2="443.3" y2="36.9"/>
		<circle class="st5" cx="432.2" cy="39.1" r="1.5"/>
		<circle class="st5" cx="425.3" cy="39" r="1.5"/>
		<circle class="st5" cx="439.4" cy="53.4" r="1.5"/>
		<circle class="st5" cx="439.5" cy="46.5" r="1.5"/>
		<circle class="st5" cx="418" cy="46.3" r="1.5"/>
		<circle class="st5" cx="417.9" cy="53.2" r="1.5"/>
		<circle class="st5" cx="438.8" cy="90.2" r="1.5"/>
		<circle class="st5" cx="435.8" cy="83.9" r="1.5"/>
		<g class="st5">
			<path d="M344.6,11.2c0.7,0.9,1,2,1,3.4c0,1.5-0.4,2.7-1.1,3.7c-0.9,1.2-2.2,1.7-3.8,1.7c-1.5,0-2.7-0.5-3.6-1.5
				c-0.8-1-1.2-2.2-1.2-3.7c0-1.3,0.3-2.5,1-3.5c0.9-1.2,2.1-1.8,3.8-1.8C342.4,9.5,343.7,10.1,344.6,11.2z M343.4,17.6
				c0.5-0.9,0.8-1.8,0.8-2.9c0-1.2-0.3-2.1-0.9-2.8c-0.6-0.7-1.5-1.1-2.5-1.1c-1,0-1.9,0.4-2.5,1.1c-0.7,0.7-1,1.8-1,3.1
				c0,1.1,0.3,2,0.8,2.8c0.6,0.8,1.5,1.1,2.7,1.1C342,18.8,342.8,18.4,343.4,17.6z"/>
		</g>
		<g class="st5">
			<path d="M314.8,21h1.4v4.1h5.1V21h1.4v10h-1.4v-4.7h-5.1V31h-1.4V21z"/>
		</g>
		<polygon class="st5" points="325.8,22.3 325.5,21.6 333.8,17.4 334.2,18.1 		"/>
		<g class="st5">
			<path d="M358.3,19.6h1.4v4.1h5.1v-4.1h1.4v10h-1.4v-4.7h-5.1v4.7h-1.4V19.6z"/>
		</g>
		<polygon class="st5" points="355.3,21.4 355,22.1 347,18.3 347.3,17.5 		"/>
		<circle class="st5" cx="335.7" cy="4.1" r="1.5"/>
		<circle class="st5" cx="330.5" cy="8.7" r="1.5"/>
		<circle class="st5" cx="349.7" cy="9.6" r="1.5"/>
		<circle class="st5" cx="345" cy="4.5" r="1.5"/>
		<path class="st2" d="M373.4,34.7c11.2,10.1,26.5,15.6,41.5,14.8"/>
		<path class="st1" d="M369.2,30.5l6.1,3.6c0,0-1.3,0.1-1.9,0.6c-0.6,0.6-0.7,1.9-0.7,1.9L369.2,30.5"/>
		<path class="st2" d="M369.2,30.5l6.1,3.6c0,0-1.3,0.1-1.9,0.6c-0.6,0.6-0.7,1.9-0.7,1.9L369.2,30.5"/>
		<path class="st2" d="M342.1,24.7c1.4,2.3,4.4,3,6.7,1.5c1.4-0.9,2.3-2.5,2.3-4.1"/>
		<path class="st1" d="M341.3,22.1l2.4,2.5c0,0-1-0.1-1.6,0.1c-0.6,0.2-1.4,0.8-1.4,0.8L341.3,22.1"/>
		<path class="st2" d="M341.3,22.1l2.4,2.5c0,0-1-0.1-1.6,0.1c-0.6,0.2-1.4,0.8-1.4,0.8L341.3,22.1"/>
		<line class="st9" x1="566" y1="79.9" x2="484.3" y2="79.9"/>
		<path class="st5" d="M573.3,79.9l-8.4,2.1c0,0,1-1.2,1-2.1c0-1-1-2.2-1-2.2L573.3,79.9"/>
		<path class="st7" d="M573.3,79.9l-8.4,2.1c0,0,1-1.2,1-2.1c0-1-1-2.2-1-2.2L573.3,79.9"/>
		<path class="st7" d="M547,118.2c-5.7-15.6-16.4-29.3-30.2-38.6"/>
		<path class="st5" d="M548.8,123.8L545,118c0,0,1.2,0.5,1.9,0.2c0.7-0.3,1.4-1.4,1.4-1.4L548.8,123.8"/>
		<path class="st7" d="M548.8,123.8L545,118c0,0,1.2,0.5,1.9,0.2c0.7-0.3,1.4-1.4,1.4-1.4L548.8,123.8"/>
		<g class="st5">
			<path d="M594.7,71.1h4.5c0.7,0,1.4,0.1,1.8,0.3c0.9,0.4,1.4,1.2,1.4,2.4c0,0.6-0.1,1.1-0.4,1.5c-0.2,0.4-0.6,0.7-1,0.9
				c0.4,0.2,0.7,0.4,0.9,0.6c0.2,0.3,0.3,0.7,0.3,1.3l0,1.3c0,0.4,0,0.7,0.1,0.8c0.1,0.3,0.2,0.5,0.4,0.6v0.2h-1.7
				c0-0.1-0.1-0.2-0.1-0.3s0-0.4-0.1-0.8l-0.1-1.7c0-0.7-0.3-1.1-0.7-1.3c-0.3-0.1-0.6-0.2-1.2-0.2h-3v4.3h-1.4V71.1z M599.1,75.6
				c0.6,0,1.1-0.1,1.5-0.4s0.5-0.7,0.5-1.4c0-0.7-0.3-1.2-0.8-1.5c-0.3-0.1-0.6-0.2-1.1-0.2H596v3.4H599.1z"/>
		</g>
		<g class="st5">
			<path d="M604.5,71.9v-0.7c0.7-0.1,1.1-0.2,1.4-0.3c0.3-0.2,0.5-0.5,0.6-1.1h0.7V77h-1v-5.2H604.5z"/>
		</g>
		<polygon class="st5" points="624.2,69.4 624.7,69.8 624.2,70.3 610.1,73.8 609.9,73 		"/>
		<g class="st5">
			<path d="M641.9,70.1h4.5c0.7,0,1.4,0.1,1.8,0.3c0.9,0.4,1.4,1.2,1.4,2.4c0,0.6-0.1,1.1-0.4,1.5c-0.2,0.4-0.6,0.7-1,0.9
				c0.4,0.2,0.7,0.4,0.9,0.6c0.2,0.3,0.3,0.7,0.3,1.3l0,1.3c0,0.4,0,0.7,0.1,0.8c0.1,0.3,0.2,0.5,0.4,0.6v0.2h-1.7
				c0-0.1-0.1-0.2-0.1-0.3s0-0.4-0.1-0.8l-0.1-1.7c0-0.7-0.3-1.1-0.7-1.3c-0.3-0.1-0.6-0.2-1.2-0.2h-3v4.3h-1.4V70.1z M646.3,74.7
				c0.6,0,1.1-0.1,1.5-0.4s0.5-0.7,0.5-1.4c0-0.7-0.3-1.2-0.8-1.5c-0.3-0.1-0.6-0.2-1.1-0.2h-3.2v3.4H646.3z"/>
		</g>
		<g class="st5">
			<path d="M651.5,74.4c0.2-0.5,0.7-0.9,1.3-1.3l1-0.6c0.4-0.3,0.7-0.5,0.9-0.7c0.3-0.3,0.4-0.6,0.4-1c0-0.4-0.1-0.8-0.4-1
				c-0.3-0.2-0.6-0.4-1-0.4c-0.6,0-1.1,0.2-1.3,0.7c-0.1,0.3-0.2,0.6-0.2,1.1h-0.9c0-0.6,0.1-1.2,0.4-1.6c0.4-0.7,1.1-1.1,2.1-1.1
				c0.8,0,1.4,0.2,1.8,0.7c0.4,0.5,0.6,1,0.6,1.5c0,0.6-0.2,1.1-0.6,1.5c-0.2,0.2-0.7,0.5-1.3,0.9l-0.7,0.4
				c-0.3,0.2-0.6,0.4-0.8,0.5c-0.3,0.3-0.6,0.6-0.6,1h4v0.9h-5C651.1,75.5,651.2,74.9,651.5,74.4z"/>
		</g>
		<polygon class="st5" points="639.2,73.1 639,74 625.1,70.3 624.7,69.8 625.1,69.5 		"/>
		<g class="st5">
			<path d="M620.2,53.2c-0.7-0.9-1-2-1-3.4c0-1.5,0.4-2.7,1.1-3.7c0.9-1.2,2.2-1.7,3.8-1.7c1.5,0,2.7,0.5,3.6,1.5
				c0.8,1,1.2,2.2,1.2,3.7c0,1.3-0.3,2.5-1,3.5c-0.9,1.2-2.1,1.8-3.8,1.8C622.4,54.9,621.1,54.4,620.2,53.2z M621.4,46.9
				c-0.5,0.9-0.8,1.8-0.8,2.9c0,1.2,0.3,2.1,0.9,2.8c0.6,0.7,1.5,1.1,2.5,1.1c1,0,1.9-0.4,2.5-1.1c0.7-0.7,1-1.8,1-3.1
				c0-1.1-0.3-2-0.8-2.8c-0.6-0.8-1.5-1.1-2.7-1.1C622.8,45.6,622,46,621.4,46.9z"/>
		</g>
		<polygon class="st5" points="624.2,57.1 625.1,57.1 625.1,69.5 624.7,69.8 624.2,69.4 		"/>
		<g class="st5">
			<path d="M621.8,87.6h1.6l5,8.1v-8.1h1.3v10h-1.5l-5-8v8h-1.3V87.6z"/>
		</g>
		<polygon class="st5" points="625.1,85.3 624.2,85.3 624.2,70.3 624.7,69.8 625.1,70.3 		"/>
		<g class="st5">
			<path d="M598.9,99.4h1.4v4.1h5.1v-4.1h1.4v10h-1.4v-4.7h-5.1v4.7h-1.4V99.4z"/>
		</g>
		<polygon class="st5" points="609.9,100.6 609.5,100 618.5,95.3 618.8,96 		"/>
		<g class="st5">
			<path d="M641,101.6h1.6l5,8.1v-8.1h1.3v10h-1.5l-5-8v8H641V101.6z"/>
			<path d="M651.1,101.6h1.4v4.1h5.1v-4.1h1.4v10h-1.4v-4.7h-5.1v4.7h-1.4V101.6z"/>
		</g>
		<g class="st5">
			<path d="M660.8,113.1c0.2-0.5,0.7-0.9,1.3-1.3l1-0.6c0.4-0.3,0.7-0.5,0.9-0.7c0.3-0.3,0.4-0.6,0.4-1c0-0.4-0.1-0.8-0.4-1
				c-0.3-0.2-0.6-0.4-1-0.4c-0.6,0-1.1,0.2-1.3,0.7c-0.1,0.3-0.2,0.6-0.2,1.1h-0.9c0-0.6,0.1-1.2,0.4-1.6c0.4-0.7,1.1-1.1,2.1-1.1
				c0.8,0,1.4,0.2,1.8,0.7c0.4,0.5,0.6,1,0.6,1.5c0,0.6-0.2,1.1-0.6,1.5c-0.2,0.2-0.7,0.5-1.3,0.9l-0.7,0.4
				c-0.3,0.2-0.6,0.4-0.8,0.5c-0.3,0.3-0.6,0.6-0.6,1h4v0.9h-5C660.4,114.1,660.6,113.6,660.8,113.1z"/>
		</g>
		<polygon class="st5" points="638,101.8 637.5,102.5 631.8,98.2 632.3,97.6 		"/>
		<circle class="st5" cx="628.7" cy="39.1" r="1.5"/>
		<circle class="st5" cx="621.7" cy="39" r="1.5"/>
		<circle class="st5" cx="635" cy="53.4" r="1.5"/>
		<circle class="st5" cx="635" cy="46.5" r="1.5"/>
		<circle class="st5" cx="635.4" cy="90.1" r="1.5"/>
		<circle class="st5" cx="632.1" cy="84" r="1.5"/>
		<g class="st5">
			<path d="M599.9,33h1.4v4.1h5.1V33h1.4v10h-1.4v-4.7h-5.1V43h-1.4V33z"/>
		</g>
		<polygon class="st5" points="610.4,42.6 610.8,41.9 618,45.8 617.6,46.5 		"/>
		<g class="st5">
			<path d="M545.2,142h1.4v4.1h5.1V142h1.4v10h-1.4v-4.7h-5.1v4.7h-1.4V142z"/>
			<path d="M563.5,143.4c0.7,0.9,1,2,1,3.4c0,1.5-0.4,2.7-1.1,3.7c-0.9,1.2-2.2,1.7-3.8,1.7c-1.5,0-2.7-0.5-3.6-1.5
				c-0.8-1-1.2-2.2-1.2-3.7c0-1.3,0.3-2.5,1-3.5c0.9-1.2,2.1-1.8,3.8-1.8C561.3,141.7,562.6,142.3,563.5,143.4z M562.3,149.8
				c0.5-0.9,0.8-1.8,0.8-2.9c0-1.2-0.3-2.1-0.9-2.8c-0.6-0.7-1.5-1.1-2.5-1.1c-1,0-1.9,0.4-2.5,1.1c-0.7,0.7-1,1.8-1,3.1
				c0,1.1,0.3,2,0.8,2.8c0.6,0.8,1.5,1.1,2.7,1.1C560.9,151,561.7,150.6,562.3,149.8z"/>
		</g>
		<circle class="st5" cx="569.4" cy="142.8" r="1.5"/>
		<circle class="st5" cx="569.6" cy="149.8" r="1.5"/>
		<circle class="st5" cx="563.7" cy="156.6" r="1.5"/>
		<circle class="st5" cx="556.7" cy="156.7" r="1.5"/>
		<circle class="st5" cx="556.5" cy="137" r="1.5"/>
		<circle class="st5" cx="563.5" cy="137" r="1.5"/>
		<circle class="st3" cx="571.4" cy="134.5" r="4.5"/>
		<line class="st3" x1="569.2" y1="134.5" x2="573.7" y2="134.5"/>
		<path class="st2" d="M571.8,146.1c15-0.8,28.3-13.3,30.2-28.2"/>
		<path class="st1" d="M602.1,112.1l1.5,6.8c0,0-0.9-0.9-1.7-0.9c-0.8,0-1.8,0.7-1.8,0.7L602.1,112.1"/>
		<path class="st2" d="M602.1,112.1l1.5,6.8c0,0-0.9-0.9-1.7-0.9c-0.8,0-1.8,0.7-1.8,0.7L602.1,112.1"/>
		<path class="st2" d="M615.9,55.2c-1.9,2.5-1.4,6.1,1.1,7.9c1.6,1.2,3.9,1.5,5.8,0.6"/>
		<path class="st1" d="M618,53.5l-1.4,3.2c0,0-0.3-1-0.7-1.5s-1.3-1-1.3-1L618,53.5"/>
		<path class="st2" d="M618,53.5l-1.4,3.2c0,0-0.3-1-0.7-1.5s-1.3-1-1.3-1L618,53.5"/>
		<path class="st2" d="M619.7,79.9c-5.2,1.2-8.5,6.3-7.3,11.5c0.4,1.6,1.1,3.1,2.3,4.4"/>
		<path class="st1" d="M622.3,79.6l-2.9,1.8c0,0,0.3-1,0.2-1.6c-0.1-0.6-0.6-1.5-0.6-1.5L622.3,79.6"/>
		<path class="st2" d="M622.3,79.6l-2.9,1.8c0,0,0.3-1,0.2-1.6c-0.1-0.6-0.6-1.5-0.6-1.5L622.3,79.6"/>
		<path class="st7" d="M674.6,305.6c52.8-56.9,51.1-153.7-3.6-208.7"/>
		<path class="st5" d="M670.5,309.8l3.4-6.1c0,0,0.1,1.3,0.7,1.8s1.9,0.6,1.9,0.6L670.5,309.8"/>
		<path class="st7" d="M670.5,309.8l3.4-6.1c0,0,0.1,1.3,0.7,1.8s1.9,0.6,1.9,0.6L670.5,309.8"/>
		<g class="st5">
			<path d="M616.2,338.5h1.6l5,8.1v-8.1h1.3v10h-1.5l-5-8v8h-1.3V338.5z"/>
		</g>
		<polygon class="st5" points="618.7,323.8 619,323.5 619.5,323.8 619.5,336.2 618.7,336.2 		"/>
		<rect x="622.2" y="325.6" class="st5" width="0.8" height="10.6"/>
		<g class="st5">
			<path d="M635.4,307.6h4.5c0.7,0,1.4,0.1,1.8,0.3c0.9,0.4,1.4,1.2,1.4,2.4c0,0.6-0.1,1.1-0.4,1.5c-0.2,0.4-0.6,0.7-1,0.9
				c0.4,0.2,0.7,0.4,0.9,0.6c0.2,0.3,0.3,0.7,0.3,1.3l0,1.3c0,0.4,0,0.7,0.1,0.8c0.1,0.3,0.2,0.5,0.4,0.6v0.2h-1.7
				c0-0.1-0.1-0.2-0.1-0.3s0-0.4-0.1-0.8l-0.1-1.7c0-0.7-0.3-1.1-0.7-1.3c-0.3-0.1-0.6-0.2-1.2-0.2h-3v4.3h-1.4V307.6z M639.8,312.2
				c0.6,0,1.1-0.1,1.5-0.4s0.5-0.7,0.5-1.4c0-0.7-0.3-1.2-0.8-1.5c-0.3-0.1-0.6-0.2-1.1-0.2h-3.2v3.4H639.8z"/>
		</g>
		<g class="st5">
			<path d="M645,311.9c0.2-0.5,0.7-0.9,1.3-1.3l1-0.6c0.4-0.3,0.7-0.5,0.9-0.7c0.3-0.3,0.4-0.6,0.4-1c0-0.4-0.1-0.8-0.4-1
				c-0.3-0.2-0.6-0.4-1-0.4c-0.6,0-1.1,0.2-1.3,0.7c-0.1,0.3-0.2,0.6-0.2,1.1h-0.9c0-0.6,0.1-1.2,0.4-1.6c0.4-0.7,1.1-1.1,2.1-1.1
				c0.8,0,1.4,0.2,1.8,0.7c0.4,0.5,0.6,1,0.6,1.5c0,0.6-0.2,1.1-0.6,1.5c-0.2,0.2-0.7,0.5-1.3,0.9l-0.7,0.4
				c-0.3,0.2-0.6,0.4-0.8,0.5c-0.3,0.3-0.6,0.6-0.6,1h4v0.9h-5C644.6,313,644.7,312.4,645,311.9z"/>
		</g>
		<polygon class="st5" points="631.9,315.7 632.3,316.4 619.5,323.8 619,323.5 619,323 		"/>
		<g class="st5">
			<path d="M595.6,307.6h4.5c0.7,0,1.4,0.1,1.8,0.3c0.9,0.4,1.4,1.2,1.4,2.4c0,0.6-0.1,1.1-0.4,1.5c-0.2,0.4-0.6,0.7-1,0.9
				c0.4,0.2,0.7,0.4,0.9,0.6c0.2,0.3,0.3,0.7,0.3,1.3l0,1.3c0,0.4,0,0.7,0.1,0.8c0.1,0.3,0.2,0.5,0.4,0.6v0.2h-1.7
				c0-0.1-0.1-0.2-0.1-0.3s0-0.4-0.1-0.8l-0.1-1.7c0-0.7-0.3-1.1-0.7-1.3c-0.3-0.1-0.6-0.2-1.2-0.2h-3v4.3h-1.4V307.6z M600,312.2
				c0.6,0,1.1-0.1,1.5-0.4s0.5-0.7,0.5-1.4c0-0.7-0.3-1.2-0.8-1.5c-0.3-0.1-0.6-0.2-1.1-0.2H597v3.4H600z"/>
		</g>
		<g class="st5">
			<path d="M605.5,308.4v-0.7c0.7-0.1,1.1-0.2,1.4-0.3c0.3-0.2,0.5-0.5,0.6-1.1h0.7v7.3h-1v-5.2H605.5z"/>
		</g>
		<polygon class="st5" points="606.7,316.9 607,316.1 619,323 619,323.5 618.7,323.8 		"/>
		<g class="st5">
			<path d="M638.1,351.3h1.6l5,8.1v-8.1h1.3v10h-1.5l-5-8v8h-1.3V351.3z"/>
		</g>
		<polygon class="st5" points="635.1,352.4 634.7,353 626.6,348.4 627,347.6 		"/>
		<g class="st5">
			<path d="M660,340.4h1.4v4.1h5.1v-4.1h1.4v10h-1.4v-4.7h-5.1v4.7H660V340.4z"/>
		</g>
		<polygon class="st5" points="656.7,348 657,348.7 649.1,352.6 648.8,351.9 		"/>
		<g class="st5">
			<path d="M638.1,374.9h1.4v4.1h5.1v-4.1h1.4v10h-1.4v-4.7h-5.1v4.7h-1.4V374.9z"/>
		</g>
		<rect x="640.5" y="363.5" class="st5" width="0.9" height="9.2"/>
		<circle class="st5" cx="649" cy="364.8" r="1.5"/>
		<circle class="st5" cx="652.4" cy="358.7" r="1.5"/>
		<circle class="st5" cx="609.3" cy="347.5" r="1.5"/>
		<circle class="st5" cx="613.2" cy="353.2" r="1.5"/>
		<path class="st7" d="M660.5,222.8c24.2,3.2,46.5-13.9,49.7-38.1c0.8-5.7,0.4-11.6-1.1-17.2"/>
		<path class="st5" d="M654.9,221.6l6.9-0.4c0,0-1,0.8-1.2,1.5c-0.2,0.7,0.4,1.8,0.4,1.8L654.9,221.6"/>
		<path class="st7" d="M654.9,221.6l6.9-0.4c0,0-1,0.8-1.2,1.5c-0.2,0.7,0.4,1.8,0.4,1.8L654.9,221.6"/>
		<g class="st5">
			<path d="M624.6,211.1h1.4v4.1h5.1v-4.1h1.4v10h-1.4v-4.7H626v4.7h-1.4V211.1z"/>
		</g>
		<g class="st5">
			<path d="M634.4,222.7c0.2-0.5,0.7-0.9,1.3-1.3l1-0.6c0.4-0.3,0.7-0.5,0.9-0.7c0.3-0.3,0.4-0.6,0.4-1c0-0.4-0.1-0.8-0.4-1
				c-0.3-0.2-0.6-0.4-1-0.4c-0.6,0-1.1,0.2-1.3,0.7c-0.1,0.3-0.2,0.6-0.2,1.1h-0.9c0-0.6,0.1-1.2,0.4-1.6c0.4-0.7,1.1-1.1,2.1-1.1
				c0.8,0,1.4,0.2,1.8,0.7c0.4,0.5,0.6,1,0.6,1.5c0,0.6-0.2,1.1-0.6,1.5c-0.2,0.2-0.7,0.5-1.3,0.9l-0.7,0.4
				c-0.3,0.2-0.6,0.4-0.8,0.5c-0.3,0.3-0.6,0.6-0.6,1h4v0.9h-5C634,223.7,634.1,223.1,634.4,222.7z"/>
		</g>
		<g class="st5">
			<path d="M648.8,212.6c0.7,0.9,1,2,1,3.4c0,1.5-0.4,2.7-1.1,3.7c-0.9,1.2-2.2,1.7-3.8,1.7c-1.5,0-2.7-0.5-3.6-1.5
				c-0.8-1-1.2-2.2-1.2-3.7c0-1.3,0.3-2.5,1-3.5c0.9-1.2,2.1-1.8,3.8-1.8C646.6,210.9,647.9,211.4,648.8,212.6z M647.6,218.9
				c0.5-0.9,0.8-1.8,0.8-2.9c0-1.2-0.3-2.1-0.9-2.8c-0.6-0.7-1.5-1.1-2.5-1.1c-1,0-1.9,0.4-2.5,1.1c-0.7,0.7-1,1.8-1,3.1
				c0,1.1,0.3,2,0.8,2.8c0.6,0.8,1.5,1.1,2.7,1.1C646.2,220.2,647,219.8,647.6,218.9z"/>
		</g>
		<g class="st5">
			<path d="M574.9,429.2h1.4v4.1h5.1v-4.1h1.4v10h-1.4v-4.7h-5.1v4.7h-1.4V429.2z"/>
			<path d="M593.2,430.7c0.7,0.9,1,2,1,3.4c0,1.5-0.4,2.7-1.1,3.7c-0.9,1.2-2.2,1.7-3.8,1.7c-1.5,0-2.7-0.5-3.6-1.5
				c-0.8-1-1.2-2.2-1.2-3.7c0-1.3,0.3-2.5,1-3.5c0.9-1.2,2.1-1.8,3.8-1.8C591,429,592.3,429.5,593.2,430.7z M592,437
				c0.5-0.9,0.8-1.8,0.8-2.9c0-1.2-0.3-2.1-0.9-2.8c-0.6-0.7-1.5-1.1-2.5-1.1c-1,0-1.9,0.4-2.5,1.1c-0.7,0.7-1,1.8-1,3.1
				c0,1.1,0.3,2,0.8,2.8c0.6,0.8,1.5,1.1,2.7,1.1C590.6,438.3,591.4,437.9,592,437z"/>
		</g>
		<circle class="st5" cx="599" cy="430.1" r="1.5"/>
		<circle class="st5" cx="599.3" cy="437" r="1.5"/>
		<circle class="st5" cx="593.3" cy="443.9" r="1.5"/>
		<circle class="st5" cx="586.4" cy="444" r="1.5"/>
		<circle class="st5" cx="586.2" cy="424.3" r="1.5"/>
		<circle class="st5" cx="593.1" cy="424.2" r="1.5"/>
		<circle class="st3" cx="601.1" cy="421.7" r="4.5"/>
		<line class="st3" x1="598.8" y1="421.7" x2="603.4" y2="421.7"/>
		<path class="st2" d="M602.4,433.4c20.3-1.6,37.7-19.3,39-39.6"/>
		<path class="st1" d="M641.3,388l1.8,6.6c0,0-1-0.8-1.7-0.8c-0.8,0-1.7,0.9-1.7,0.9L641.3,388"/>
		<path class="st2" d="M641.3,388l1.8,6.6c0,0-1-0.8-1.7-0.8c-0.8,0-1.7,0.9-1.7,0.9L641.3,388"/>
		<path class="st2" d="M633.4,359.4c-2.3,2.2-2.3,5.9,0,8.2c1.5,1.5,3.8,2.1,5.9,1.4"/>
		<path class="st1" d="M635.7,358l-1.8,3c0,0-0.2-1-0.5-1.6c-0.3-0.5-1.2-1.2-1.2-1.2L635.7,358"/>
		<path class="st2" d="M635.7,358l-1.8,3c0,0-0.2-1-0.5-1.6c-0.3-0.5-1.2-1.2-1.2-1.2L635.7,358"/>
		<g class="st5">
			<path d="M416,351.5h1.6l5,8.1v-8.1h1.3v10h-1.5l-5-8v8H416V351.5z"/>
		</g>
		<polygon class="st5" points="418.5,336.7 418.9,336.5 419.3,336.7 419.3,349.2 418.5,349.2 		"/>
		<rect x="422.1" y="338.5" class="st5" width="0.8" height="10.7"/>
		<g class="st5">
			<path d="M435.2,320.6h4.5c0.7,0,1.4,0.1,1.8,0.3c0.9,0.4,1.4,1.2,1.4,2.4c0,0.6-0.1,1.1-0.4,1.5c-0.2,0.4-0.6,0.7-1,0.9
				c0.4,0.2,0.7,0.4,0.9,0.6s0.3,0.7,0.3,1.3l0,1.3c0,0.4,0,0.7,0.1,0.8c0.1,0.3,0.2,0.5,0.4,0.6v0.2h-1.7c0-0.1-0.1-0.2-0.1-0.3
				s0-0.4-0.1-0.8l-0.1-1.7c0-0.7-0.3-1.1-0.7-1.3c-0.3-0.1-0.6-0.2-1.2-0.2h-3v4.3h-1.4V320.6z M439.6,325.1c0.6,0,1.1-0.1,1.5-0.4
				c0.4-0.3,0.5-0.7,0.5-1.4c0-0.7-0.2-1.2-0.8-1.5c-0.3-0.1-0.6-0.2-1.1-0.2h-3.2v3.4H439.6z"/>
		</g>
		<g class="st5">
			<path d="M444.8,324.9c0.2-0.5,0.7-0.9,1.3-1.3l1-0.6c0.4-0.3,0.7-0.5,0.9-0.7c0.3-0.3,0.4-0.6,0.4-1c0-0.4-0.1-0.8-0.4-1
				c-0.3-0.2-0.6-0.4-1-0.4c-0.6,0-1.1,0.2-1.3,0.7c-0.1,0.3-0.2,0.6-0.2,1.1h-0.9c0-0.6,0.1-1.2,0.4-1.6c0.4-0.7,1.1-1.1,2.1-1.1
				c0.8,0,1.4,0.2,1.8,0.7c0.4,0.5,0.6,1,0.6,1.5c0,0.6-0.2,1.1-0.6,1.5c-0.2,0.2-0.7,0.5-1.3,0.9l-0.7,0.4
				c-0.3,0.2-0.6,0.4-0.8,0.5c-0.3,0.3-0.6,0.6-0.6,1h4v0.9h-5C444.4,325.9,444.6,325.4,444.8,324.9z"/>
		</g>
		<polygon class="st5" points="431.8,328.6 432.2,329.4 419.3,336.7 418.9,336.5 418.9,336 		"/>
		<g class="st5">
			<path d="M395.5,320.6h4.5c0.7,0,1.4,0.1,1.8,0.3c0.9,0.4,1.4,1.2,1.4,2.4c0,0.6-0.1,1.1-0.4,1.5c-0.2,0.4-0.6,0.7-1,0.9
				c0.4,0.2,0.7,0.4,0.9,0.6s0.3,0.7,0.3,1.3l0,1.3c0,0.4,0,0.7,0.1,0.8c0.1,0.3,0.2,0.5,0.4,0.6v0.2H402c0-0.1-0.1-0.2-0.1-0.3
				s0-0.4-0.1-0.8l-0.1-1.7c0-0.7-0.3-1.1-0.7-1.3c-0.3-0.1-0.6-0.2-1.2-0.2h-3v4.3h-1.4V320.6z M399.9,325.1c0.6,0,1.1-0.1,1.5-0.4
				c0.4-0.3,0.5-0.7,0.5-1.4c0-0.7-0.2-1.2-0.8-1.5c-0.3-0.1-0.6-0.2-1.1-0.2h-3.2v3.4H399.9z"/>
		</g>
		<g class="st5">
			<path d="M405.3,321.4v-0.7c0.7-0.1,1.1-0.2,1.4-0.3c0.3-0.2,0.5-0.5,0.6-1.1h0.7v7.3h-1v-5.2H405.3z"/>
		</g>
		<polygon class="st5" points="406.5,329.9 406.9,329.1 418.9,336 418.9,336.5 418.5,336.7 		"/>
		<g class="st5">
			<path d="M438,365.2h1.6l5,8.1v-8.1h1.3v10h-1.5l-5-8v8H438V365.2z"/>
		</g>
		<polygon class="st5" points="434.9,366 434.5,366.7 426.3,361.6 426.8,360.9 		"/>
		<g class="st5">
			<path d="M459.9,354.3h1.4v4.1h5.1v-4.1h1.4v10h-1.4v-4.7h-5.1v4.7h-1.4V354.3z"/>
		</g>
		<polygon class="st5" points="456.5,361.8 456.9,362.6 449,366.5 448.6,365.8 		"/>
		<circle class="st5" cx="447.9" cy="378.7" r="1.5"/>
		<circle class="st5" cx="451.3" cy="372.6" r="1.5"/>
		<circle class="st5" cx="409.1" cy="360.4" r="1.5"/>
		<circle class="st5" cx="413.1" cy="366.2" r="1.5"/>
		<circle class="st3" cx="441.7" cy="358.7" r="4.5"/>
		<line class="st3" x1="439.4" y1="358.7" x2="444" y2="358.7"/>
		<circle class="st5" cx="432.3" cy="373.4" r="1.5"/>
		<circle class="st5" cx="436.2" cy="379.1" r="1.5"/>
		<g class="st5">
			<path d="M529.9,282.7c0.7,0.9,1,2,1,3.4c0,1.5-0.4,2.7-1.1,3.7c-0.9,1.2-2.2,1.7-3.8,1.7c-1.5,0-2.7-0.5-3.6-1.5
				c-0.8-1-1.2-2.2-1.2-3.7c0-1.3,0.3-2.5,1-3.5c0.9-1.2,2.1-1.8,3.8-1.8C527.8,281,529.1,281.6,529.9,282.7z M528.7,289.1
				c0.5-0.9,0.8-1.8,0.8-2.9c0-1.2-0.3-2.1-0.9-2.8c-0.6-0.7-1.5-1.1-2.5-1.1c-1,0-1.9,0.4-2.5,1.1c-0.7,0.7-1,1.8-1,3.1
				c0,1.1,0.3,2,0.8,2.8c0.6,0.8,1.5,1.1,2.7,1.1C527.3,290.3,528.2,289.9,528.7,289.1z"/>
		</g>
		<g class="st5">
			<path d="M500.2,292.5h1.4v4.1h5.1v-4.1h1.4v10h-1.4v-4.7h-5.1v4.7h-1.4V292.5z"/>
		</g>
		<polygon class="st5" points="511.2,293.9 510.8,293.1 519.2,288.9 519.5,289.6 		"/>
		<g class="st5">
			<path d="M543.6,291.1h1.4v4.1h5.1v-4.1h1.4v10h-1.4v-4.7H545v4.7h-1.4V291.1z"/>
		</g>
		<polygon class="st5" points="540.7,292.9 540.3,293.6 532.3,289.8 532.7,289 		"/>
		<circle class="st5" cx="521" cy="275.6" r="1.5"/>
		<circle class="st5" cx="515.8" cy="280.2" r="1.5"/>
		<circle class="st5" cx="535.1" cy="281.1" r="1.5"/>
		<circle class="st5" cx="530.4" cy="276" r="1.5"/>
		<path class="st2" d="M426.9,367.5c-2.3,2.2-2.3,5.9-0.1,8.2c1.5,1.5,3.9,2.1,5.9,1.5"/>
		<path class="st1" d="M429.2,366.1l-1.8,3c0,0-0.2-1-0.5-1.6c-0.3-0.6-1.2-1.2-1.2-1.2L429.2,366.1"/>
		<path class="st2" d="M429.2,366.1l-1.8,3c0,0-0.2-1-0.5-1.6c-0.3-0.6-1.2-1.2-1.2-1.2L429.2,366.1"/>
		<path class="st2" d="M424.9,343.8c25.7,4.8,52.7-7.8,71.3-33.2"/>
		<path class="st1" d="M499.5,305.6l-2.4,6.6c0,0-0.3-1.3-1-1.7c-0.6-0.5-1.9-0.3-1.9-0.3L499.5,305.6"/>
		<path class="st2" d="M499.5,305.6l-2.4,6.6c0,0-0.3-1.3-1-1.7c-0.6-0.5-1.9-0.3-1.9-0.3L499.5,305.6"/>
		<line class="st9" x1="501.8" y1="351.4" x2="587.6" y2="351.4"/>
		<path class="st5" d="M494.5,351.4l8.4-2.2c0,0-1,1.2-1,2.2c0,0.9,1,2.1,1,2.1L494.5,351.4"/>
		<path class="st7" d="M494.5,351.4l8.4-2.2c0,0-1,1.2-1,2.2c0,0.9,1,2.1,1,2.1L494.5,351.4"/>
		<path class="st7" d="M530.4,319.8c2.4,13.5,11.5,25.6,23.8,31.6"/>
		<path class="st5" d="M529.7,313.7l2.5,6.7c0,0-1.1-0.7-1.9-0.6c-0.8,0.1-1.7,1.1-1.7,1.1L529.7,313.7"/>
		<path class="st7" d="M529.7,313.7l2.5,6.7c0,0-1.1-0.7-1.9-0.6c-0.8,0.1-1.7,1.1-1.7,1.1L529.7,313.7"/>
		<path class="st2" d="M514.2,293.2c0,2.7,2.2,4.9,4.9,4.9c1.6,0,3.1-0.8,4-2.1"/>
		<path class="st1" d="M523.9,293.2l0.6,3.7c0,0-0.8-0.7-1.5-1c-0.7-0.2-1.8-0.2-1.8-0.2L523.9,293.2"/>
		<path class="st2" d="M523.9,293.2l0.6,3.7c0,0-0.8-0.7-1.5-1c-0.7-0.2-1.8-0.2-1.8-0.2L523.9,293.2"/>
		<line class="st9" x1="245.5" y1="352.3" x2="370.4" y2="352.3"/>
		<path class="st5" d="M238.2,352.3l8.4-2.2c0,0-1,1.2-1,2.2c0,0.9,1,2.1,1,2.1L238.2,352.3"/>
		<path class="st7" d="M238.2,352.3l8.4-2.2c0,0-1,1.2-1,2.2c0,0.9,1,2.1,1,2.1L238.2,352.3"/>
		<g class="st5">
			<path d="M172.3,364.5h1.6l5,8.1v-8.1h1.3v10h-1.5l-5-8v8h-1.3V364.5z"/>
		</g>
		<polygon class="st5" points="174.8,349.7 175.2,349.5 175.6,349.8 175.6,362.2 174.8,362.2 		"/>
		<g class="st5">
			<path d="M182.4,324.3h4.5c0.7,0,1.4,0.1,1.8,0.3c0.9,0.4,1.4,1.2,1.4,2.4c0,0.6-0.1,1.1-0.4,1.5c-0.2,0.4-0.6,0.7-1,0.9
				c0.4,0.2,0.7,0.4,0.9,0.6c0.2,0.3,0.3,0.7,0.3,1.3l0,1.3c0,0.4,0,0.7,0.1,0.8c0.1,0.3,0.2,0.5,0.4,0.6v0.2h-1.7
				c0-0.1-0.1-0.2-0.1-0.3s0-0.4-0.1-0.8l-0.1-1.7c0-0.7-0.3-1.1-0.7-1.3c-0.3-0.1-0.6-0.2-1.2-0.2h-3v4.3h-1.4V324.3z M186.8,328.9
				c0.6,0,1.1-0.1,1.5-0.4s0.5-0.7,0.5-1.4c0-0.7-0.3-1.2-0.8-1.5c-0.3-0.1-0.6-0.2-1.1-0.2h-3.2v3.4H186.8z"/>
		</g>
		<g class="st5">
			<path d="M192,328.6c0.2-0.5,0.7-0.9,1.3-1.3l1-0.6c0.4-0.3,0.7-0.5,0.9-0.7c0.3-0.3,0.4-0.6,0.4-1c0-0.4-0.1-0.8-0.4-1
				c-0.3-0.2-0.6-0.4-1-0.4c-0.6,0-1.1,0.2-1.3,0.7c-0.1,0.3-0.2,0.6-0.2,1.1h-0.9c0-0.6,0.1-1.2,0.4-1.6c0.4-0.7,1.1-1.1,2.1-1.1
				c0.8,0,1.4,0.2,1.8,0.7c0.4,0.5,0.6,1,0.6,1.5c0,0.6-0.2,1.1-0.6,1.5c-0.2,0.2-0.7,0.5-1.3,0.9l-0.7,0.4
				c-0.3,0.2-0.6,0.4-0.8,0.5c-0.3,0.3-0.6,0.6-0.6,1h4v0.9h-5C191.6,329.7,191.7,329.1,192,328.6z"/>
		</g>
		<polygon class="st5" points="181.3,336.2 182,336.6 176,348.9 175.2,349.5 175,348.9 		"/>
		<g class="st5">
			<path d="M151.8,333.6h4.5c0.7,0,1.4,0.1,1.8,0.3c0.9,0.4,1.4,1.2,1.4,2.4c0,0.6-0.1,1.1-0.4,1.5c-0.2,0.4-0.6,0.7-1,0.9
				c0.4,0.2,0.7,0.4,0.9,0.6c0.2,0.3,0.3,0.7,0.3,1.3l0,1.3c0,0.4,0,0.7,0.1,0.8c0.1,0.3,0.2,0.5,0.4,0.6v0.2h-1.7
				c0-0.1-0.1-0.2-0.1-0.3s0-0.4-0.1-0.8l-0.1-1.7c0-0.7-0.3-1.1-0.7-1.3c-0.3-0.1-0.6-0.2-1.2-0.2h-3v4.3h-1.4V333.6z M156.2,338.1
				c0.6,0,1.1-0.1,1.5-0.4s0.5-0.7,0.5-1.4c0-0.7-0.3-1.2-0.8-1.5c-0.3-0.1-0.6-0.2-1.1-0.2h-3.2v3.4H156.2z"/>
		</g>
		<g class="st5">
			<path d="M161.6,334.4v-0.7c0.7-0.1,1.1-0.2,1.4-0.3c0.3-0.2,0.5-0.5,0.6-1.1h0.7v7.3h-1v-5.2H161.6z"/>
		</g>
		<polygon class="st5" points="162.8,342.9 163.2,342.1 175,348.9 175.2,349.5 174.8,349.7 		"/>
		<g class="st5">
			<path d="M194.2,378.2h1.6l5,8.1v-8.1h1.3v10h-1.5l-5-8v8h-1.3V378.2z"/>
		</g>
		<polygon class="st5" points="191.2,379 190.8,379.7 182.7,374.6 183.1,373.9 		"/>
		<polygon class="st5" points="193.7,375 193.2,375.7 185.1,370.7 185.5,370 		"/>
		<g class="st5">
			<path d="M217.1,367.3h1.4v4.1h5.1v-4.1h1.4v10h-1.4v-4.7h-5.1v4.7h-1.4V367.3z"/>
		</g>
		<polygon class="st5" points="213.8,374.7 214.2,375.5 205.2,379.7 204.9,379 		"/>
		<circle class="st5" cx="165.4" cy="373.4" r="1.5"/>
		<circle class="st5" cx="169.4" cy="379.1" r="1.5"/>
		<g class="st5">
			<path d="M192.4,339.8h1.4v4.1h5.1v-4.1h1.4v10h-1.4v-4.7h-5.1v4.7h-1.4V339.8z"/>
		</g>
		<polygon class="st5" points="189.5,345.7 189.7,346.5 175.6,349.8 175.2,349.5 176,348.9 		"/>
		<circle class="st5" cx="194.8" cy="393" r="1.5"/>
		<circle class="st5" cx="201.7" cy="392.9" r="1.5"/>
		<g class="st5">
			<path d="M283.4,426.6c0.7,0.9,1,2,1,3.4c0,1.5-0.4,2.7-1.1,3.7c-0.9,1.2-2.2,1.7-3.8,1.7c-1.5,0-2.7-0.5-3.6-1.5
				c-0.8-1-1.2-2.2-1.2-3.7c0-1.3,0.3-2.5,1-3.5c0.9-1.2,2.1-1.8,3.8-1.8C281.3,424.9,282.6,425.4,283.4,426.6z M282.2,432.9
				c0.5-0.9,0.8-1.8,0.8-2.9c0-1.2-0.3-2.1-0.9-2.8c-0.6-0.7-1.5-1.1-2.5-1.1c-1,0-1.9,0.4-2.5,1.1c-0.7,0.7-1,1.8-1,3.1
				c0,1.1,0.3,2,0.8,2.8c0.6,0.8,1.5,1.1,2.7,1.1C280.8,434.2,281.7,433.8,282.2,432.9z"/>
			<path d="M286.1,425.1h1.4v4.1h5.1v-4.1h1.4v10h-1.4v-4.7h-5.1v4.7h-1.4V425.1z"/>
		</g>
		<circle class="st5" cx="269.9" cy="426" r="1.5"/>
		<circle class="st5" cx="269.6" cy="432.9" r="1.5"/>
		<circle class="st5" cx="275.9" cy="439.8" r="1.5"/>
		<circle class="st5" cx="282.9" cy="439.9" r="1.5"/>
		<circle class="st5" cx="283.1" cy="420.2" r="1.5"/>
		<circle class="st5" cx="276.1" cy="420.2" r="1.5"/>
		<circle class="st3" cx="268.2" cy="417.6" r="4.5"/>
		<line class="st3" x1="265.9" y1="417.6" x2="270.5" y2="417.6"/>
		<path class="st2" d="M279,417.6c-1.4-23.5-21.7-43.9-45.1-45.4"/>
		<path class="st1" d="M228,372.2l6.7-1.7c0,0-0.9,1-0.9,1.7c0,0.8,0.8,1.7,0.8,1.7L228,372.2"/>
		<path class="st2" d="M228,372.2l6.7-1.7c0,0-0.9,1-0.9,1.7c0,0.8,0.8,1.7,0.8,1.7L228,372.2"/>
		<path class="st2" d="M210.1,374.5c-0.7-3-3.7-5-6.7-4.3c-1.9,0.4-3.6,1.9-4.2,3.8"/>
		<path class="st1" d="M199,376.8l-1.5-3.5c0,0,0.9,0.5,1.7,0.6c0.8,0.1,1.7-0.3,1.7-0.3L199,376.8"/>
		<path class="st2" d="M199,376.8l-1.5-3.5c0,0,0.9,0.5,1.7,0.6c0.8,0.1,1.7-0.3,1.7-0.3L199,376.8"/>
		<path class="st7" d="M122.5,358.3c-35.5,9.5-66.2,35-82,68.1"/>
		<path class="st5" d="M38,431.7l1.2-6.8c0,0,0.5,1.2,1.2,1.5c0.7,0.3,1.9,0,1.9,0L38,431.7"/>
		<path class="st7" d="M38,431.7l1.2-6.8c0,0,0.5,1.2,1.2,1.5c0.7,0.3,1.9,0,1.9,0L38,431.7"/>
		<g class="st5">
			<path d="M24.1,492.4h1.6l5,8.1v-8.1h1.3v10h-1.5l-5-8v8h-1.3V492.4z"/>
		</g>
		<polygon class="st5" points="26.5,474.8 26.9,474.5 27.4,474.8 27.4,490.1 26.5,490.1 		"/>
		<g class="st5">
			<path d="M34.1,449.4h4.5c0.7,0,1.4,0.1,1.8,0.3c0.9,0.4,1.4,1.2,1.4,2.4c0,0.6-0.1,1.1-0.4,1.5c-0.2,0.4-0.6,0.7-1,0.9
				c0.4,0.2,0.7,0.4,0.9,0.6c0.2,0.3,0.3,0.7,0.3,1.3l0,1.3c0,0.4,0,0.7,0.1,0.8c0.1,0.3,0.2,0.5,0.4,0.6v0.2h-1.7
				c0-0.1-0.1-0.2-0.1-0.3c0-0.1,0-0.4-0.1-0.8l-0.1-1.7c0-0.7-0.3-1.1-0.7-1.3c-0.3-0.1-0.6-0.2-1.2-0.2h-3v4.3h-1.4V449.4z
				 M38.5,454c0.6,0,1.1-0.1,1.5-0.4c0.4-0.3,0.5-0.7,0.5-1.4c0-0.7-0.3-1.2-0.8-1.5c-0.3-0.1-0.6-0.2-1.1-0.2h-3.2v3.4H38.5z"/>
		</g>
		<g class="st5">
			<path d="M43.7,453.7c0.2-0.5,0.7-0.9,1.3-1.3l1-0.6c0.4-0.3,0.7-0.5,0.9-0.7c0.3-0.3,0.4-0.6,0.4-1c0-0.4-0.1-0.8-0.4-1
				c-0.3-0.2-0.6-0.4-1-0.4c-0.6,0-1.1,0.2-1.3,0.7c-0.1,0.3-0.2,0.6-0.2,1.1h-0.9c0-0.6,0.1-1.2,0.4-1.6c0.4-0.7,1.1-1.1,2.1-1.1
				c0.8,0,1.4,0.2,1.8,0.7c0.4,0.5,0.6,1,0.6,1.5c0,0.6-0.2,1.1-0.6,1.5c-0.2,0.2-0.7,0.5-1.3,0.9l-0.7,0.4
				c-0.3,0.2-0.6,0.4-0.8,0.5c-0.3,0.3-0.6,0.6-0.6,1h4v0.9h-5C43.3,454.8,43.5,454.2,43.7,453.7z"/>
		</g>
		<polygon class="st5" points="33,461.3 33.8,461.7 27.7,474 26.9,474.5 26.8,474 		"/>
		<g class="st5">
			<path d="M3.5,458.7H8c0.7,0,1.4,0.1,1.8,0.3c0.9,0.4,1.4,1.2,1.4,2.4c0,0.6-0.1,1.1-0.4,1.5c-0.2,0.4-0.6,0.7-1,0.9
				c0.4,0.2,0.7,0.4,0.9,0.6c0.2,0.3,0.3,0.7,0.3,1.3l0,1.3c0,0.4,0,0.7,0.1,0.8c0.1,0.3,0.2,0.5,0.4,0.6v0.2H10
				c0-0.1-0.1-0.2-0.1-0.3c0-0.1,0-0.4-0.1-0.8l-0.1-1.7c0-0.7-0.3-1.1-0.7-1.3c-0.3-0.1-0.6-0.2-1.2-0.2h-3v4.3H3.5V458.7z
				 M7.9,463.2c0.6,0,1.1-0.1,1.5-0.4c0.4-0.3,0.5-0.7,0.5-1.4c0-0.7-0.3-1.2-0.8-1.5c-0.3-0.1-0.6-0.2-1.1-0.2H4.8v3.4H7.9z"/>
		</g>
		<g class="st5">
			<path d="M13.3,459.5v-0.7c0.7-0.1,1.1-0.2,1.4-0.3c0.3-0.2,0.5-0.5,0.6-1.1H16v7.3h-1v-5.2H13.3z"/>
		</g>
		<polygon class="st5" points="14.5,468 14.9,467.2 26.8,474 26.9,474.5 26.5,474.8 		"/>
		<g class="st5">
			<path d="M47.2,504.1h1.6l5,8.1v-8.1h1.3v10h-1.5l-5-8v8h-1.3V504.1z"/>
		</g>
		<polygon class="st5" points="44.2,507.6 43.8,508.3 34.4,502.5 34.8,501.8 		"/>
		<polygon class="st5" points="46.6,503.7 46.2,504.4 36.9,498.5 37.3,497.8 		"/>
		<circle class="st5" cx="17.1" cy="501.3" r="1.5"/>
		<circle class="st5" cx="21.1" cy="507" r="1.5"/>
		<g class="st5">
			<path d="M44.1,464.9h1.4v4.1h5.1v-4.1h1.4v10h-1.4v-4.7h-5.1v4.7h-1.4V464.9z"/>
		</g>
		<polygon class="st5" points="41.2,470.8 41.4,471.6 27.4,474.8 26.9,474.5 27.7,474 		"/>
		<circle class="st5" cx="47.7" cy="519.1" r="1.5"/>
		<circle class="st5" cx="54.7" cy="519" r="1.5"/>
		<circle class="st3" cx="63.2" cy="514.2" r="4.5"/>
		<line class="st3" x1="60.9" y1="514.2" x2="65.5" y2="514.2"/>
		<circle class="st5" cx="60.8" cy="505.1" r="1.5"/>
		<circle class="st5" cx="56.9" cy="499.4" r="1.5"/>
		<path class="st7" d="M40.8,537.1c18.5,38,56.9,65.5,98.8,70.7"/>
		<path class="st5" d="M145.5,608.4l-6.9,1c0,0,1-0.9,1-1.6c0.1-0.7-0.6-1.8-0.6-1.8L145.5,608.4"/>
		<path class="st7" d="M145.5,608.4l-6.9,1c0,0,1-0.9,1-1.6c0.1-0.7-0.6-1.8-0.6-1.8L145.5,608.4"/>
		<g class="st5">
			<path d="M204.6,593.1h4.5c0.7,0,1.4,0.1,1.8,0.3c0.9,0.4,1.4,1.2,1.4,2.4c0,0.6-0.1,1.1-0.4,1.5c-0.2,0.4-0.6,0.7-1,0.9
				c0.4,0.2,0.7,0.4,0.9,0.6c0.2,0.3,0.3,0.7,0.3,1.3l0,1.3c0,0.4,0,0.7,0.1,0.8c0.1,0.3,0.2,0.5,0.4,0.6v0.2h-1.7
				c0-0.1-0.1-0.2-0.1-0.3s0-0.4-0.1-0.8l-0.1-1.7c0-0.7-0.3-1.1-0.7-1.3c-0.3-0.1-0.6-0.2-1.2-0.2h-3v4.3h-1.4V593.1z M209,597.6
				c0.6,0,1.1-0.1,1.5-0.4s0.5-0.7,0.5-1.4c0-0.7-0.3-1.2-0.8-1.5c-0.3-0.1-0.6-0.2-1.1-0.2H206v3.4H209z"/>
		</g>
		<g class="st5">
			<path d="M214.2,597.4c0.2-0.5,0.7-0.9,1.3-1.3l1-0.6c0.4-0.3,0.7-0.5,0.9-0.7c0.3-0.3,0.4-0.6,0.4-1c0-0.4-0.1-0.8-0.4-1
				c-0.3-0.2-0.6-0.4-1-0.4c-0.6,0-1.1,0.2-1.3,0.7c-0.1,0.3-0.2,0.6-0.2,1.1H214c0-0.6,0.1-1.2,0.4-1.6c0.4-0.7,1.1-1.1,2.1-1.1
				c0.8,0,1.4,0.2,1.8,0.7c0.4,0.5,0.6,1,0.6,1.5c0,0.6-0.2,1.1-0.6,1.5c-0.2,0.2-0.7,0.5-1.3,0.9l-0.7,0.4
				c-0.3,0.2-0.6,0.4-0.8,0.5c-0.3,0.3-0.6,0.6-0.6,1h4v0.9h-5C213.8,598.4,214,597.9,214.2,597.4z"/>
		</g>
		<polygon class="st5" points="203,604.7 203.8,605.1 196.5,617.5 195.5,618.2 195.4,617.6 		"/>
		<g class="st5">
			<path d="M170.3,601.4h4.5c0.7,0,1.4,0.1,1.8,0.3c0.9,0.4,1.4,1.2,1.4,2.4c0,0.6-0.1,1.1-0.4,1.5c-0.2,0.4-0.6,0.7-1,0.9
				c0.4,0.2,0.7,0.4,0.9,0.6c0.2,0.3,0.3,0.7,0.3,1.3l0,1.3c0,0.4,0,0.7,0.1,0.8c0.1,0.3,0.2,0.5,0.4,0.6v0.2h-1.7
				c0-0.1-0.1-0.2-0.1-0.3s0-0.4-0.1-0.8l-0.1-1.7c0-0.7-0.3-1.1-0.7-1.3c-0.3-0.1-0.6-0.2-1.2-0.2h-3v4.3h-1.4V601.4z M174.7,605.9
				c0.6,0,1.1-0.1,1.5-0.4s0.5-0.7,0.5-1.4c0-0.7-0.3-1.2-0.8-1.5c-0.3-0.1-0.6-0.2-1.1-0.2h-3.2v3.4H174.7z"/>
		</g>
		<g class="st5">
			<path d="M180.1,602.2v-0.7c0.7-0.1,1.1-0.2,1.4-0.3c0.3-0.2,0.5-0.5,0.6-1.1h0.7v7.3h-1v-5.2H180.1z"/>
		</g>
		<polygon class="st5" points="181.3,610.6 181.7,609.8 195.4,617.6 195.5,618.2 195.5,618.6 		"/>
		<g class="st5">
			<path d="M212.7,607.6h1.4v4.1h5.1v-4.1h1.4v10h-1.4v-4.7h-5.1v4.7h-1.4V607.6z"/>
		</g>
		<polygon class="st5" points="209.8,613.8 210,614.6 195.5,618.6 195.5,618.2 196.5,617.5 		"/>
		<circle class="st5" cx="192" cy="623" r="1.5"/>
		<circle class="st5" cx="198.9" cy="624" r="1.5"/>
		<circle class="st3" cx="192.1" cy="606.8" r="4.5"/>
		<line class="st3" x1="189.8" y1="606.8" x2="194.4" y2="606.8"/>
		<path class="st2" d="M60.6,500.9c0.9-5.1-2.5-10-7.6-10.9c-3.9-0.7-8.1,1.4-9.9,4.8"/>
		<path class="st1" d="M42.2,497.7l-0.5-3.8c0,0,0.8,0.7,1.5,1c0.7,0.3,1.8,0.2,1.8,0.2L42.2,497.7"/>
		<path class="st2" d="M42.2,497.7l-0.5-3.8c0,0,0.8,0.7,1.5,1c0.7,0.3,1.8,0.2,1.8,0.2L42.2,497.7"/>
		<path class="st2" d="M22.1,476.4c-2.2,1.4-2.8,4.4-1.4,6.6c0.9,1.3,2.4,2.2,4,2.2"/>
		<path class="st1" d="M24.7,475.6l-2.5,2.4c0,0,0.1-1-0.1-1.7c-0.2-0.6-0.9-1.4-0.9-1.4L24.7,475.6"/>
		<path class="st2" d="M24.7,475.6l-2.5,2.4c0,0,0.1-1-0.1-1.7c-0.2-0.6-0.9-1.4-0.9-1.4L24.7,475.6"/>
		<path class="st7" d="M74.5,641.5c14.8-18.9,13-48.4-4-65.4"/>
		<path class="st5" d="M70.5,646l3.2-6.4c0,0,0.2,1.3,0.8,1.8c0.6,0.5,1.9,0.5,1.9,0.5L70.5,646"/>
		<path class="st7" d="M70.5,646l3.2-6.4c0,0,0.2,1.3,0.8,1.8c0.6,0.5,1.9,0.5,1.9,0.5L70.5,646"/>
		<g class="st5">
			<path d="M45.1,655.8h1.6l5,8.1v-8.1H53v10h-1.5l-5-8v8h-1.3V655.8z"/>
		</g>
		<g class="st5">
			<path d="M64.3,667.6h1.6l5,8.1v-8.1h1.3v10h-1.5l-5-8v8h-1.3V667.6z"/>
		</g>
		<polygon class="st5" points="63.3,665 63,665.7 57.5,662.4 58,661.7 		"/>
		<polygon class="st5" points="61.2,668.5 60.8,669.2 55.4,665.8 55.8,665.2 		"/>
		<polygon class="st5" points="59.1,671.9 58.7,672.7 53.3,669.3 53.8,668.6 		"/>
		<g class="st5">
			<path class="st8" d="M83.9,659c-0.5,1-0.9,1.8-1,2.3c-0.2,0.7-0.4,1.6-0.4,2.6c0,1,0.1,1.9,0.4,2.7c0.2,0.5,0.5,1.2,1,2.2h-0.6
				c-0.5-0.8-0.8-1.3-0.9-1.5c-0.1-0.2-0.2-0.5-0.4-0.9c-0.2-0.5-0.3-1-0.4-1.6c0-0.3-0.1-0.6-0.1-0.8c0-1,0.2-1.9,0.5-2.7
				c0.2-0.5,0.6-1.2,1.2-2.2H83.9z"/>
			<path class="st8" d="M88,661.3c0.2,0.1,0.3,0.3,0.5,0.5v-0.7h0.8v4.9c0,0.7-0.1,1.2-0.3,1.6c-0.4,0.7-1.1,1.1-2.1,1.1
				c-0.6,0-1.1-0.1-1.5-0.4c-0.4-0.3-0.6-0.7-0.7-1.2h0.9c0,0.2,0.1,0.4,0.3,0.6c0.2,0.2,0.5,0.3,1,0.3c0.7,0,1.2-0.2,1.4-0.7
				c0.1-0.3,0.2-0.8,0.2-1.6c-0.2,0.3-0.4,0.5-0.7,0.6c-0.3,0.1-0.6,0.2-1,0.2c-0.6,0-1.1-0.2-1.5-0.6s-0.7-1.1-0.7-2.1
				c0-0.9,0.2-1.6,0.7-2.1c0.4-0.5,1-0.8,1.6-0.8C87.3,661,87.7,661.1,88,661.3z M88.1,662.3c-0.3-0.3-0.6-0.5-1.1-0.5
				c-0.6,0-1.1,0.3-1.3,0.9c-0.1,0.3-0.2,0.7-0.2,1.3c0,0.6,0.1,1.1,0.4,1.4c0.2,0.3,0.6,0.5,1,0.5c0.7,0,1.1-0.3,1.4-0.9
				c0.1-0.3,0.2-0.7,0.2-1.2C88.5,663.1,88.4,662.6,88.1,662.3z"/>
			<path class="st8" d="M90.4,668.7c0.5-1,0.9-1.8,1-2.3c0.2-0.7,0.4-1.6,0.4-2.6c0-1-0.1-1.9-0.4-2.7c-0.2-0.5-0.5-1.2-1-2.2H91
				c0.5,0.8,0.8,1.3,0.9,1.5c0.1,0.2,0.2,0.5,0.4,0.8c0.2,0.4,0.3,0.8,0.3,1.3c0.1,0.4,0.1,0.8,0.1,1.2c0,1-0.2,1.9-0.5,2.7
				c-0.2,0.5-0.6,1.2-1.2,2.2H90.4z"/>
		</g>
		<polygon class="st0" points="97.4,655.2 96.2,658 95.5,657.7 97.2,653.6 98.3,653.6 100,657.7 99.3,658 98.2,655.2 98.2,665.7 
			97.4,665.7 		"/>
		<circle class="st5" cx="75.1" cy="682.7" r="1.5"/>
		<circle class="st5" cx="78.6" cy="676.7" r="1.5"/>
		<circle class="st5" cx="39" cy="657.7" r="1.5"/>
		<circle class="st5" cx="42.5" cy="651.7" r="1.5"/>
		<path class="st7" d="M33.5,342.1c9,22.3,35.4,35.4,58.6,29.2"/>
		<path class="st5" d="M31.5,336.3l3.9,5.9c0,0-1.2-0.5-2-0.2s-1.4,1.4-1.4,1.4L31.5,336.3"/>
		<path class="st7" d="M31.5,336.3l3.9,5.9c0,0-1.2-0.5-2-0.2s-1.4,1.4-1.4,1.4L31.5,336.3"/>
		<g class="st5">
			<path d="M18.6,313.1H20v4.1h5.1v-4.1h1.4v10h-1.4v-4.7H20v4.7h-1.4V313.1z"/>
		</g>
		<g class="st5">
			<path d="M28.4,324.6c0.2-0.5,0.7-0.9,1.3-1.3l1-0.6c0.4-0.3,0.7-0.5,0.9-0.7c0.3-0.3,0.4-0.6,0.4-1c0-0.4-0.1-0.8-0.4-1
				c-0.3-0.2-0.6-0.4-1-0.4c-0.6,0-1.1,0.2-1.3,0.7c-0.1,0.3-0.2,0.6-0.2,1.1h-0.9c0-0.6,0.1-1.2,0.4-1.6c0.4-0.7,1.1-1.1,2.1-1.1
				c0.8,0,1.4,0.2,1.8,0.7c0.4,0.5,0.6,1,0.6,1.5c0,0.6-0.2,1.1-0.6,1.5c-0.2,0.2-0.7,0.5-1.3,0.9l-0.7,0.4
				c-0.3,0.2-0.6,0.4-0.8,0.5c-0.3,0.3-0.6,0.6-0.6,1h4v0.9h-5C28,325.6,28.1,325.1,28.4,324.6z"/>
		</g>
		<g class="st5">
			<path d="M42.8,314.5c0.7,0.9,1,2,1,3.4c0,1.5-0.4,2.7-1.1,3.7c-0.9,1.2-2.2,1.7-3.8,1.7c-1.5,0-2.7-0.5-3.6-1.5
				c-0.8-1-1.2-2.2-1.2-3.7c0-1.3,0.3-2.5,1-3.5c0.9-1.2,2.1-1.8,3.8-1.8C40.6,312.8,41.9,313.4,42.8,314.5z M41.6,320.9
				c0.5-0.9,0.8-1.8,0.8-2.9c0-1.2-0.3-2.1-0.9-2.8c-0.6-0.7-1.5-1.1-2.5-1.1c-1,0-1.9,0.4-2.5,1.1c-0.7,0.7-1,1.8-1,3.1
				c0,1.1,0.3,2,0.8,2.8c0.6,0.8,1.5,1.1,2.7,1.1C40.2,322.1,41,321.7,41.6,320.9z"/>
		</g>
		<line class="st9" x1="327.9" y1="611.8" x2="246.2" y2="611.8"/>
		<path class="st5" d="M335.1,611.8l-8.4,2.1c0,0,1-1.2,1-2.1c0-1-1-2.2-1-2.2L335.1,611.8"/>
		<path class="st7" d="M335.1,611.8l-8.4,2.1c0,0,1-1.2,1-2.1c0-1-1-2.2-1-2.2L335.1,611.8"/>
		<path class="st7" d="M278.6,611.7c16.1-4.3,27.6-20.9,26-37.4"/>
		<path class="st5" d="M303.6,568.5l2.9,6.2c0,0-1.1-0.6-1.8-0.5c-0.7,0.2-1.5,1.2-1.5,1.2L303.6,568.5"/>
		<path class="st7" d="M303.6,568.5l2.9,6.2c0,0-1.1-0.6-1.8-0.5c-0.7,0.2-1.5,1.2-1.5,1.2L303.6,568.5"/>
		<g class="st5">
			<path d="M252.8,689.9c0.7,0.9,1,2,1,3.4c0,1.5-0.4,2.7-1.1,3.7c-0.9,1.2-2.2,1.7-3.8,1.7c-1.5,0-2.7-0.5-3.6-1.5
				c-0.8-1-1.2-2.2-1.2-3.7c0-1.3,0.3-2.5,1-3.5c0.9-1.2,2.1-1.8,3.8-1.8C250.7,688.2,252,688.7,252.8,689.9z M251.6,696.2
				c0.5-0.9,0.8-1.8,0.8-2.9c0-1.2-0.3-2.1-0.9-2.8s-1.5-1.1-2.5-1.1c-1,0-1.9,0.4-2.5,1.1c-0.7,0.7-1,1.8-1,3.1
				c0,1.1,0.3,2,0.8,2.8s1.5,1.1,2.7,1.1C250.2,697.5,251.1,697.1,251.6,696.2z"/>
		</g>
		<g class="st5">
			<path d="M223.1,676.9h1.4v4.1h5.1v-4.1h1.4v10h-1.4v-4.7h-5.1v4.7h-1.4V676.9z"/>
		</g>
		<polygon class="st5" points="233.7,686.3 234,685.5 242.6,689.8 242.2,690.6 		"/>
		<g class="st5">
			<path d="M265.6,678.3h1.4v4.1h5.1v-4.1h1.4v10h-1.4v-4.7H267v4.7h-1.4V678.3z"/>
		</g>
		<polygon class="st5" points="262.2,685.9 262.7,686.7 255.5,690.2 255.2,689.5 		"/>
		<circle class="st5" cx="244.1" cy="702.6" r="1.5"/>
		<circle class="st5" cx="238.9" cy="698" r="1.5"/>
		<circle class="st5" cx="258" cy="697.4" r="1.5"/>
		<circle class="st5" cx="253.3" cy="702.5" r="1.5"/>
		<path class="st2" d="M194.7,627c-3.3,18.1,4.9,37.6,20,48"/>
		<path class="st1" d="M219.7,678l-6.6-2c0,0,1.2-0.4,1.6-1.1c0.4-0.6,0.2-1.9,0.2-1.9L219.7,678"/>
		<path class="st2" d="M219.7,678l-6.6-2c0,0,1.2-0.4,1.6-1.1c0.4-0.6,0.2-1.9,0.2-1.9L219.7,678"/>
		<path class="st2" d="M248.5,683.7c-1.3-2.7-4.5-3.9-7.2-2.6c-1.8,0.8-3,2.6-3.1,4.6"/>
		<path class="st1" d="M249,686.3l-2.2-2.7c0,0,1,0.2,1.7,0c0.6-0.1,1.5-0.7,1.5-0.7L249,686.3"/>
		<path class="st2" d="M249,686.3l-2.2-2.7c0,0,1,0.2,1.7,0c0.6-0.1,1.5-0.7,1.5-0.7L249,686.3"/>
		<g class="st5">
			<path d="M401,595.8h4.5c0.7,0,1.4,0.1,1.8,0.3c0.9,0.4,1.4,1.2,1.4,2.4c0,0.6-0.1,1.1-0.4,1.5c-0.2,0.4-0.6,0.7-1,0.9
				c0.4,0.2,0.7,0.4,0.9,0.6s0.3,0.7,0.3,1.3l0,1.3c0,0.4,0,0.7,0.1,0.8c0.1,0.3,0.2,0.5,0.4,0.6v0.2h-1.7c0-0.1-0.1-0.2-0.1-0.3
				s0-0.4-0.1-0.8l-0.1-1.7c0-0.7-0.3-1.1-0.7-1.3c-0.3-0.1-0.6-0.2-1.2-0.2h-3v4.3H401V595.8z M405.4,600.3c0.6,0,1.1-0.1,1.5-0.4
				c0.4-0.3,0.5-0.7,0.5-1.4c0-0.7-0.2-1.2-0.8-1.5c-0.3-0.1-0.6-0.2-1.1-0.2h-3.2v3.4H405.4z"/>
		</g>
		<g class="st5">
			<path d="M410.6,600.1c0.2-0.5,0.7-0.9,1.3-1.3l1-0.6c0.4-0.3,0.7-0.5,0.9-0.7c0.3-0.3,0.4-0.6,0.4-1c0-0.4-0.1-0.8-0.4-1
				c-0.3-0.2-0.6-0.4-1-0.4c-0.6,0-1.1,0.2-1.3,0.7c-0.1,0.3-0.2,0.6-0.2,1.1h-0.9c0-0.6,0.1-1.2,0.4-1.6c0.4-0.7,1.1-1.1,2.1-1.1
				c0.8,0,1.4,0.2,1.8,0.7s0.6,1,0.6,1.5c0,0.6-0.2,1.1-0.6,1.5c-0.2,0.2-0.7,0.5-1.3,0.9l-0.7,0.4c-0.3,0.2-0.6,0.4-0.8,0.5
				c-0.3,0.3-0.6,0.6-0.6,1h4v0.9h-5C410.2,601.1,410.3,600.6,410.6,600.1z"/>
		</g>
		<polygon class="st5" points="397.5,603.9 397.9,604.6 387,610.9 386.5,610.8 386.5,610.2 		"/>
		<g class="st5">
			<path d="M361.2,594h4.5c0.7,0,1.4,0.1,1.8,0.3c0.9,0.4,1.4,1.2,1.4,2.4c0,0.6-0.1,1.1-0.4,1.5c-0.2,0.4-0.6,0.7-1,0.9
				c0.4,0.2,0.7,0.4,0.9,0.6c0.2,0.3,0.3,0.7,0.3,1.3l0,1.3c0,0.4,0,0.7,0.1,0.8c0.1,0.3,0.2,0.5,0.4,0.6v0.2h-1.7
				c0-0.1-0.1-0.2-0.1-0.3s0-0.4-0.1-0.8l-0.1-1.7c0-0.7-0.3-1.1-0.7-1.3c-0.3-0.1-0.6-0.2-1.2-0.2h-3v4.3h-1.4V594z M365.6,598.5
				c0.6,0,1.1-0.1,1.5-0.4s0.5-0.7,0.5-1.4c0-0.7-0.3-1.2-0.8-1.5c-0.3-0.1-0.6-0.2-1.1-0.2h-3.2v3.4H365.6z"/>
		</g>
		<g class="st5">
			<path d="M371,594.8v-0.7c0.7-0.1,1.1-0.2,1.4-0.3c0.3-0.2,0.5-0.5,0.6-1.1h0.7v7.3h-1v-5.2H371z"/>
		</g>
		<polygon class="st5" points="372.2,603.2 372.6,602.5 386.5,610.2 386.5,610.8 385.9,610.9 		"/>
		<g class="st5">
			<path d="M394.6,625.9h1.4v4.1h5.1v-4.1h1.4v10h-1.4v-4.7H396v4.7h-1.4V625.9z"/>
		</g>
		<polygon class="st5" points="394,623.7 393.2,624 386.5,611.7 386.5,610.8 387,610.9 		"/>
		<g class="st5">
			<path d="M372.7,625.9h1.4v4.1h5.1v-4.1h1.4v10h-1.4v-4.7h-5.1v4.7h-1.4V625.9z"/>
		</g>
		<polygon class="st5" points="380.2,623.2 379.5,622.8 385.9,610.9 386.5,610.8 386.5,611.7 		"/>
		<path class="st7" d="M318.6,352.3c-13.8,9.3-24.5,23-30.2,38.6"/>
		<path class="st5" d="M286.7,396.5l0.4-6.9c0,0,0.7,1.1,1.4,1.4s1.9-0.2,1.9-0.2L286.7,396.5"/>
		<path class="st7" d="M286.7,396.5l0.4-6.9c0,0,0.7,1.1,1.4,1.4s1.9-0.2,1.9-0.2L286.7,396.5"/>
		<g class="st5">
			<path d="M303.8,542.4c0.7,0.9,1,2,1,3.4c0,1.5-0.4,2.7-1.1,3.7c-0.9,1.2-2.2,1.7-3.8,1.7c-1.5,0-2.7-0.5-3.6-1.5
				c-0.8-1-1.2-2.2-1.2-3.7c0-1.3,0.3-2.5,1-3.5c0.9-1.2,2.1-1.8,3.8-1.8C301.7,540.7,303,541.3,303.8,542.4z M302.6,548.8
				c0.5-0.9,0.8-1.8,0.8-2.9c0-1.2-0.3-2.1-0.9-2.8c-0.6-0.7-1.5-1.1-2.5-1.1c-1,0-1.9,0.4-2.5,1.1c-0.7,0.7-1,1.8-1,3.1
				c0,1.1,0.3,2,0.8,2.8c0.6,0.8,1.5,1.1,2.7,1.1C301.2,550,302.1,549.6,302.6,548.8z"/>
			<path d="M306.5,541h1.4v4.1h5.1V541h1.4v10h-1.4v-4.7h-5.1v4.7h-1.4V541z"/>
		</g>
		<circle class="st5" cx="290.3" cy="541.8" r="1.5"/>
		<circle class="st5" cx="290" cy="548.8" r="1.5"/>
		<circle class="st5" cx="296.3" cy="555.7" r="1.5"/>
		<circle class="st5" cx="303.3" cy="555.7" r="1.5"/>
		<circle class="st5" cx="303.5" cy="536" r="1.5"/>
		<circle class="st5" cx="296.5" cy="536" r="1.5"/>
		<circle class="st3" cx="288.6" cy="533.5" r="4.5"/>
		<line class="st3" x1="286.3" y1="533.5" x2="290.8" y2="533.5"/>
	</g>
</g>
</svg>
